<svg width="288" height="288" xmlns="http://www.w3.org/2000/svg" preserveAspectRatio="xMidYMid meet" version="1.0">

 <g>
  <title>Layer 1</title>
  <ellipse stroke="null" ry="56.5" rx="63.5" id="svg_31" cy="142" cx="71" stroke-width="3" fill="#be49b9"/>
  <ellipse stroke="null" ry="61" rx="67.5" id="svg_30" cy="137.5" cx="210" stroke-width="3" fill="#be49b9"/>
  <ellipse ry="61" rx="66" id="svg_29" cy="105.5" cx="126.5" stroke-width="3" fill="#be49b9"/>
  <g id="svg_1" fill="#BE49B9" transform="translate(0 222) scale(0.1 -0.1)">
   <path fill="#be49b9" id="svg_3" d="m1200,1679c0,-5 5,-7 10,-4c6,3 10,8 10,11c0,2 -4,4 -10,4c-5,0 -10,-5 -10,-11z"/>
   <path fill="#be49b9" id="svg_4" d="m1745,1550c-3,-5 -2,-10 4,-10c5,0 13,5 16,10c3,6 2,10 -4,10c-5,0 -13,-4 -16,-10z"/>
   <path fill="#be49b9" id="svg_5" d="m1725,1450c-10,-11 -16,-22 -13,-25c3,-3 13,4 23,15c10,11 16,22 13,25c-3,3 -13,-4 -23,-15z"/>
   <path fill="#be49b9" id="svg_6" d="m1105,1420c3,-5 13,-10 21,-10c8,0 14,5 14,10c0,6 -9,10 -21,10c-11,0 -17,-4 -14,-10z"/>
   <path fill="#be49b9" id="svg_7" d="m2173,1383c9,-2 23,-2 30,0c6,3 -1,5 -18,5c-16,0 -22,-2 -12,-5z"/>
   <path fill="#be49b9" id="svg_8" d="m2158,1333c7,-3 16,-2 19,1c4,3 -2,6 -13,5c-11,0 -14,-3 -6,-6z"/>
   <path fill="#be49b9" id="svg_9" d="m1002,1287c-19,-20 -23,-36 -24,-106c0,-73 2,-85 23,-107c19,-21 31,-24 69,-22c42,3 45,5 45,32c0,25 -5,31 -32,38c-42,11 -60,42 -43,73c11,21 19,23 81,22c38,-1 69,1 69,6c0,4 -9,7 -20,7c-11,0 -20,5 -20,11c0,7 10,9 25,7c23,-5 30,2 26,24c0,4 6,5 14,2c8,-4 15,-2 15,4c0,16 -22,20 -46,10c-15,-7 -30,-5 -52,6c-47,24 -104,21 -130,-7z"/>
   <path fill="#be49b9" id="svg_10" d="m1298,1303c6,-2 18,-2 25,0c6,3 1,5 -13,5c-14,0 -19,-2 -12,-5z"/>
   <path fill="#be49b9" id="svg_11" d="m1368,1303c7,-3 16,-2 19,1c4,3 -2,6 -13,5c-11,0 -14,-3 -6,-6z"/>
   <path fill="#be49b9" id="svg_12" d="m1598,1303c6,-2 18,-2 25,0c6,3 1,5 -13,5c-14,0 -19,-2 -12,-5z"/>
   <path fill="#be49b9" id="svg_13" d="m1658,1303c7,-3 16,-2 19,1c4,3 -2,6 -13,5c-11,0 -14,-3 -6,-6z"/>
   <path fill="#be49b9" id="svg_14" d="m440,1290c0,-5 6,-10 14,-10c8,0 18,5 21,10c3,6 -3,10 -14,10c-12,0 -21,-4 -21,-10z"/>
   <path fill="#be49b9" id="svg_15" d="m2105,1291c-7,-12 12,-24 25,-16c11,7 4,25 -10,25c-5,0 -11,-4 -15,-9z"/>
   <path fill="#be49b9" id="svg_16" d="m1206,1214c-10,-25 1,-29 14,-5c6,12 7,21 1,21c-5,0 -12,-7 -15,-16z"/>
   <path fill="#be49b9" id="svg_17" d="m1601,1197c-14,-18 -4,-27 31,-27c31,0 39,24 12,34c-23,9 -30,8 -43,-7z"/>
   <path fill="#be49b9" id="svg_18" d="m2007,1203c-17,-16 -5,-33 23,-33c32,0 37,9 18,28c-13,13 -31,16 -41,5z"/>
   <path fill="#be49b9" id="svg_19" d="m1327,1193c-4,-3 -7,-35 -7,-69c0,-59 2,-64 24,-70c36,-9 42,-1 45,53c1,26 4,49 6,52c2,2 0,12 -6,22c-9,18 -49,26 -62,12zm43,-103c0,-5 -2,-10 -4,-10c-3,0 -8,5 -11,10c-3,6 -1,10 4,10c6,0 11,-4 11,-10z"/>
   <path fill="#be49b9" id="svg_20" d="m2160,1138c0,-16 5,-28 10,-28c13,0 13,20 0,40c-8,12 -10,9 -10,-12z"/>
   <path fill="#be49b9" id="svg_21" d="m1990,1082c0,-22 31,-34 70,-28c23,3 46,8 51,12c5,3 16,1 24,-6c14,-12 31,2 21,18c-7,11 -166,15 -166,4z"/>
   <path fill="#be49b9" id="svg_22" d="m2691,1074c0,-11 3,-14 6,-6c3,7 2,16 -1,19c-3,4 -6,-2 -5,-13z"/>
   <path fill="#be49b9" id="svg_23" d="m430,1055c-10,-12 -10,-15 4,-15c9,0 16,7 16,15c0,8 -2,15 -4,15c-2,0 -9,-7 -16,-15z"/>
   <path fill="#be49b9" id="svg_24" d="m2650,1010c0,-5 5,-10 10,-10c6,0 10,5 10,10c0,6 -4,10 -10,10c-5,0 -10,-4 -10,-10z"/>
   <path fill="#be49b9" id="svg_25" d="m2701,996c-8,-13 -10,-29 -6,-36c5,-7 12,-2 21,16c8,15 11,31 6,36c-5,5 -14,-3 -21,-16z"/>
   <path fill="#be49b9" id="svg_26" d="m1972,753c-24,-46 -20,-149 6,-175c6,-6 22,-8 36,-4c25,6 26,8 26,95c0,72 -3,90 -16,95c-27,10 -43,7 -52,-11z"/>
   <path fill="#be49b9" id="svg_27" d="m1220,615c-20,-24 -8,-50 24,-50c32,0 53,23 43,49c-8,20 -50,21 -67,1z"/>
   <path fill="#be49b9" id="svg_28" d="m1598,619c-22,-12 -23,-48 -2,-56c27,-10 64,14 64,42c0,19 -5,25 -22,25c-13,0 -31,-5 -40,-11z"/>
   <path fill="#be49b9" id="svg_2" d="m1078,1774c-3,-3 -30,-10 -61,-15c-89,-14 -212,-79 -288,-152c-75,-72 -113,-126 -154,-218c-15,-36 -36,-71 -45,-77c-10,-7 -21,-27 -24,-45c-7,-33 -8,-48 -6,-101c1,-16 -4,-34 -10,-42c-8,-9 -8,-15 0,-20c5,-3 10,-15 10,-26c0,-10 8,-45 19,-76c10,-32 24,-78 31,-103c7,-25 16,-54 20,-65c9,-23 26,-87 35,-127c7,-34 25,-37 25,-5c0,13 5,28 10,33c6,6 25,67 41,135c17,68 38,132 46,142c20,21 81,23 108,3c17,-12 18,-18 8,-48c-17,-47 -27,-117 -15,-99c13,18 67,6 92,-21l19,-21l31,27c33,28 85,35 120,16c14,-7 40,-6 91,6c84,19 148,14 190,-17c44,-31 52,-55 59,-164c6,-93 7,-98 19,-70c31,74 69,94 199,104c19,2 14,19 -9,32c-16,8 -37,8 -85,-2c-60,-12 -65,-11 -79,7c-20,27 -19,81 3,92c9,5 51,15 92,22c93,15 150,3 192,-42c29,-31 36,-77 30,-193c-1,-22 3,-63 9,-91c19,-84 -20,-124 -86,-88c-30,16 -35,16 -57,2c-55,-36 -174,-21 -196,25c-10,22 -10,22 -22,-4c-19,-41 -48,-50 -91,-28c-32,16 -39,16 -55,4c-12,-9 -44,-14 -85,-15c-60,0 -70,3 -97,28c-51,48 -55,143 -6,195c24,27 111,58 149,54c11,-1 21,5 23,15c5,24 -40,34 -88,19c-52,-15 -77,-14 -84,5c-6,15 -9,15 -29,-3c-12,-11 -28,-18 -35,-16c-7,3 -27,-1 -43,-7l-30,-13l2,-129c2,-103 -1,-132 -12,-139c-21,-13 -113,-11 -127,3c-8,8 -12,59 -12,163c0,136 -8,193 -23,168c-6,-9 -23,-70 -69,-238c-12,-44 -29,-85 -37,-92c-23,-18 -132,-16 -158,2c-20,14 -32,44 -62,150c-21,78 -52,181 -66,225c-8,25 -15,52 -15,60c0,8 -9,32 -20,53c-26,47 -26,88 0,110c20,17 20,17 -6,59c-23,36 -24,42 -10,50c9,5 16,16 16,23c0,8 5,15 10,15c6,0 10,-7 10,-15c0,-8 5,-15 10,-15c20,0 9,31 -15,42c-19,9 -22,14 -14,25c10,11 13,11 23,-1c9,-13 14,-13 29,-1c20,14 16,19 -23,28c-27,7 -106,-32 -82,-40c6,-3 12,-9 12,-14c0,-5 -8,-4 -18,2c-14,9 -25,6 -55,-14c-109,-74 -167,-158 -202,-293c-51,-197 36,-423 208,-539c29,-19 64,-47 79,-64c39,-41 151,-65 269,-59c47,3 94,1 103,-4c9,-5 27,-31 41,-57c49,-97 194,-207 340,-257c62,-22 250,-24 310,-5c60,20 145,60 188,88c49,34 29,45 264,-138c128,-99 143,-107 159,-84c14,19 12,51 -11,188c-9,54 -14,105 -11,113c4,11 27,14 98,14c139,1 257,31 338,85c29,19 54,35 57,35c3,0 16,10 28,23c12,12 39,36 59,52c42,33 112,135 146,211c31,70 60,203 55,254c-10,105 -18,157 -31,180c-13,24 -13,23 -14,-25c-1,-46 -2,-48 -15,-31c-21,27 -29,13 -16,-25c9,-25 8,-34 -1,-41c-22,-14 -27,-9 -30,30c-3,30 -5,33 -12,17c-4,-11 -14,-34 -22,-52c-8,-17 -14,-36 -14,-42c0,-14 -17,-14 -25,-1c-9,15 -25,12 -25,-5c0,-9 -9,-14 -27,-13c-16,1 -40,-2 -55,-6c-22,-6 -27,-4 -34,16c-4,12 -7,31 -5,41c1,9 -3,17 -9,17c-6,0 -11,-10 -10,-22c4,-43 0,-78 -8,-78c-5,0 -15,18 -22,41c-13,37 -15,39 -27,23c-8,-11 -13,-46 -13,-89c0,-42 -5,-76 -12,-83c-7,-7 -31,-12 -55,-12c-38,0 -45,4 -53,26c-6,15 -10,41 -10,58c1,31 -22,223 -30,246c-1,3 -6,-8 -10,-23c-6,-19 -4,-39 5,-61c8,-19 11,-37 7,-40c-4,-4 -10,-82 -13,-174c-8,-187 -13,-232 -33,-270c-33,-63 -80,-85 -179,-84c-107,1 -147,15 -147,51c0,14 7,36 15,48c15,21 21,22 94,16c77,-6 79,-5 96,20c22,34 13,49 -21,37c-34,-13 -78,-13 -108,1c-93,43 -124,249 -54,355c47,70 114,93 191,67l42,-14l37,43c21,24 38,51 38,61c0,19 -11,22 -25,8c-6,-5 -33,-14 -62,-20c-41,-8 -60,-7 -95,5c-68,24 -83,52 -83,161l0,93l36,35c30,30 44,37 92,42c45,5 55,9 47,19c-8,9 -6,14 9,19c23,7 27,20 11,30c-31,19 4,32 125,44c65,6 67,7 30,13c-22,3 -58,11 -80,17c-83,22 -213,7 -303,-35c-1,-1 2,-13 8,-28c16,-44 -2,-66 -53,-66c-43,1 -71,15 -80,40c-2,8 -3,3 -1,-12c2,-20 -2,-31 -16,-38c-11,-6 -20,-15 -20,-20c0,-15 27,-12 33,4c4,10 17,11 57,5c86,-13 88,-18 86,-177c-1,-136 -1,-137 -26,-145c-15,-5 -35,-5 -50,1c-26,10 -26,10 -23,115c3,87 1,106 -13,118c-15,12 -16,10 -10,-28c12,-69 -2,-83 -85,-83c-62,0 -70,-2 -67,-17c3,-15 15,-18 67,-18c56,0 65,-3 74,-22c14,-32 3,-50 -40,-62c-100,-28 -175,-3 -204,69c-5,11 -9,9 -19,-12c-25,-53 -96,-83 -157,-66c-40,11 -93,53 -93,75c0,7 -5,13 -11,13c-6,0 -8,-11 -4,-29c7,-35 -2,-40 -100,-56c-103,-18 -173,7 -216,75c-24,39 -43,133 -35,180c17,107 110,200 200,200c24,0 28,3 16,10c-12,8 -13,11 -1,19c7,5 21,6 31,4c10,-3 21,0 24,6c5,7 -2,11 -16,11c-13,0 -27,4 -33,8c-14,10 -19,52 -6,52c5,0 13,26 17,58c9,78 65,142 125,142c10,0 21,5 24,10c4,6 -8,10 -29,10c-20,0 -36,-4 -36,-10c0,-5 -12,-9 -27,-9c-21,1 -23,2 -8,6c11,3 25,12 32,20c9,11 20,13 40,8c15,-3 46,-8 68,-10c22,-2 28,-1 13,2c-16,2 -28,9 -28,14c0,9 -183,13 -192,4zm-133,-335c3,-5 1,-10 -4,-10c-6,0 -11,5 -11,10c0,6 2,10 4,10c3,0 8,-4 11,-10zm-620,-260c-3,-5 -13,-10 -21,-10c-8,0 -12,5 -9,10c3,6 13,10 21,10c8,0 12,-4 9,-10zm5,-210c0,-11 -4,-20 -10,-20c-5,0 -10,9 -10,20c0,11 5,20 10,20c6,0 10,-9 10,-20zm1750,-70c0,-5 -7,-10 -15,-10c-8,0 -15,5 -15,10c0,6 7,10 15,10c8,0 15,-4 15,-10zm-1655,-239c3,-5 1,-12 -5,-16c-5,-3 -10,1 -10,9c0,18 6,21 15,7zm1926,-81c15,-8 19,-21 19,-60c0,-57 -14,-70 -77,-70c-55,0 -73,17 -75,68c-1,31 4,46 18,57c22,17 87,20 115,5zm-875,-147c7,-10 14,-25 14,-33c0,-17 -34,-50 -50,-50c-16,0 -12,14 10,33c24,20 26,47 5,47c-8,0 -15,5 -15,10c0,16 22,12 36,-7zm-149,1c-3,-3 -12,-4 -19,-1c-8,3 -5,6 6,6c11,1 17,-2 13,-5zm-52,-34c3,-5 -1,-10 -9,-10c-9,0 -16,5 -16,10c0,6 4,10 9,10c6,0 13,-4 16,-10zm90,0c-3,-5 -17,-10 -31,-10c-14,0 -22,4 -19,10c3,6 17,10 31,10c14,0 22,-4 19,-10zm55,-5c0,-8 -7,-15 -15,-15c-16,0 -20,12 -8,23c11,12 23,8 23,-8zm110,5c0,-5 -4,-10 -10,-10c-5,0 -10,5 -10,10c0,6 5,10 10,10c6,0 10,-4 10,-10zm80,-30c0,-6 -11,-10 -25,-10c-15,0 -25,-6 -25,-14c0,-21 -31,-29 -48,-12c-17,17 -6,40 15,31c10,-3 22,3 30,15c11,16 18,18 34,10c10,-6 19,-15 19,-20zm-220,-15c0,-8 -9,-15 -20,-15c-11,0 -20,7 -20,15c0,8 9,15 20,15c11,0 20,-7 20,-15z"/>
  </g>
  <ellipse ry="61" rx="66" id="svg_38" cy="153.5" cx="138.5" stroke-width="3" fill="#be49b9"/>
 </g>
</svg>