<svg width="101" height="101" xmlns="http://www.w3.org/2000/svg">
 <title>RTL</title>

 <g>
  <title>Layer 1</title>
  <g id="Symbols" fill="none" fill-rule="evenodd" stroke-width="0">
   <g id="Logo" fill="#FFFFFF">
    <path d="m0,68.57358l0,-30.73749c0,-5.68061 3.58189,-7.70402 7.55014,-7.70402l23.19063,0l0,7.31439l-22.64549,0l0,31.12712l-8.09528,0zm42.72407,-31.12712l0,23.81272l22.6455,0l0,7.3144l-23.189,0c-3.96824,0 -7.55014,-2.02341 -7.55014,-7.70238l0,-38.44479l8.09364,0l0,7.70566l22.6455,0l0,7.31439l-22.6455,0zm34.63044,23.81272l22.64549,0l0,7.3144l-23.19064,0c-3.96824,0 -7.54686,-2.02341 -7.54686,-7.70238l0,-30.73913l8.09201,0l0,31.12711z" id="svg_1"/>
   </g>
  </g>
 </g>
</svg>