<svg width="100px" height="100px" viewBox="0 0 120 35" xmlns="http://www.w3.org/2000/svg" style="background-color:black;">
  <title>RTL</title>
  <g id="Symbols" stroke="none" stroke-width="1" fill="none" fill-rule="evenodd">
    <g id="Logo" transform="translate(0.000000, -17.000000)" fill="#FFFFFF">
      <path d="M0,63.1471719 L0,32.4096751 C0,26.7290661 3.58189408,24.7056561 7.55013505,24.7056561 L30.740771,24.7056561 L30.740771,32.020054 L8.09527706,32.020054 L8.09527706,63.1471719 L0,63.1471719 Z M42.7240729,32.020054 L42.7240729,55.832774 L65.3695671,55.832774 L65.3695671,63.1471719 L42.180568,63.1471719 C38.212327,63.1471719 34.6304329,61.1237619 34.6304329,55.4447901 L34.6304329,17 L42.7240729,17 L42.7240729,24.7056561 L65.3695671,24.7056561 L65.3695671,32.020054 L42.7240729,32.020054 Z M77.3545061,55.832774 L100,55.832774 L100,63.1471719 L76.809364,63.1471719 C72.841123,63.1471719 69.262503,61.1237619 69.262503,55.4447901 L69.262503,24.7056561 L77.3545061,24.7056561 L77.3545061,55.832774 Z"></path>
    </g>
  </g>
</svg>
