<?xml version="1.0" encoding="utf-8"?>
<!DOCTYPE svg PUBLIC "-//W3C//DTD SVG 1.1//EN" "http://www.w3.org/Graphics/SVG/1.1/DTD/svg11.dtd">
<svg version="1.1" id="logo" xmlns="http://www.w3.org/2000/svg" xmlns:xlink="http://www.w3.org/1999/xlink" x="0px" y="0px"
	 viewBox="21 102.8 260.7 92" enable-background="new 21 102.8 260.7 92" xml:space="preserve">
<g>
    <defs>
		<linearGradient id="SVGID_1_" gradientUnits="userSpaceOnUse" x1="51.6935" y1="304.1839" x2="146.6014" y2="209.2761" gradientTransform="matrix(1.4903 0 0 -1.4903 0 533.7556)">
            <stop  offset="0" style="stop-color:#F99509"/>
            <stop  offset="0.35" style="stop-color:#E75653"/>
            <stop  offset="0.3984" style="stop-color:#DA5562"/>
            <stop  offset="0.5663" style="stop-color:#B25192"/>
            <stop  offset="0.65" style="stop-color:#A34FA4"/>
            <stop  offset="0.95" style="stop-color:#58628C"/>
	    </linearGradient>
    </defs>
	<path fill="url(#SVGID_1_)" d="M275.7,143.6c3.3,0,6,2.7,6,6s-2.7,6-6,6s-6-2.7-6-6S272.4,143.6,275.7,143.6z M74.7,128.2
		c3.9-11.9-15.9-13.7-29.2-0.3c0-3.3-0.3-6.7-3.9-7.5c-3.9-0.9-7.6,1.6-8.8,5.8c-9.4,33.5-10.9,44-11.8,53.7
		c-0.3,4.5,3.1,8.2,7.5,8.2c3.1,0,6.9-2.2,7.6-6.9c4.3-30.1,8.8-44.7,22.2-47.8l-0.4,1.5c-1.5,4.8,0.3,8.9,4.3,10.1
		c3.9,1,7.9-1.3,9.1-5.5L74.7,128.2z M271.5,157.5c-2.8-2.5-7-1.9-9.4,1.3c-5.1,6.7-10.7,13.9-14.5,13.9c-3.3,0-12.2-2.5,7.7-57.5
		c3-8.2,4.2-11.5,4.2-11.5h-9.2c-4,0-6.9,1-8.3,5.1c-3.3,8.8-3.9,10.9-9.1,26.7c-9.1,27.1-18.6,37.4-25.5,37.4
		c-3.9,0-8.3-4.5-10.1-8.5c8.5-11,18.2-23.8,28.6-40.8c2.2-3.6,1.3-8.2-2.1-10.3c-3.4-2.1-7.7-0.7-10.1,2.8
		c-4.2,6.6-15.4,21.6-24.3,34.1c-3.1-8.3-4-17.4-1-24.4c4-9.4-6.4-15.2-12.1-8.2c-5.5,7-7.5,26.1,2.7,46.2
		c-4,5.1-11.3,15.2-13.9,18.5c-2.7,3.3-2.7,8.5,0.3,10.9c4.2,3.4,8.8,1.2,10.7-1.2c2.7-3.4,9.4-12.7,11.3-15.1
		c5.5,7.3,10.3,11.3,17.3,11.3c6.9,0,14.9-4.5,23.5-15.8c1.8,9.4,7,15.8,15.6,15.8c12.2,0,23.7-16.1,27.6-21.3
		C274.1,163.4,274.4,160,271.5,157.5z M168.6,139.6c-5.8,8.2-12.4,17.4-13.7,19.2c-5.1,6.7-10.7,13.9-14.5,13.9
		c-3.3,0-12.2-2.5,7.7-57.5c3-8.2,4.2-11.5,4.2-11.5h-9.1c-4,0-6.9,1-8.3,5.1c-3.3,8.8-6.9,19.1-9.1,26.7
		c-14.6,20.9-29.4,37.4-35.2,37.4c-6.6,0-5.5-14.5,2.4-38.6h17.3c4.2,0,7.6-3.6,8.9-7.6l2.1-6.4H97.8l2.4-7.3
		c1.3-4.2-0.6-8.5-4.5-9.7c-3.9-1.3-8.9,1-10.3,5.1L77,134.2c-11.9,37.9-5.8,53.9,11.2,53.9c6.9-0.1,17.6-5.7,32.5-26.7
		c-1,14.9,4.5,26.5,16.2,26.5c12.2,0,23.7-16.1,27.6-21.3c0.9-1.2,4.2-6,7.6-10.7C170.2,150.3,169,144.8,168.6,139.6z"/>
</g>
</svg>
