<svg xmlns="http://www.w3.org/2000/svg" width="475.629" height="44.646" viewBox="57.147 398.92 475.629 44.646" class="logo__img" data-v-9f0f88b6="">
  <path fill="#FFF" d="M309.545 420.35c6.549-1.786 11.311-5.357 11.311-10.12 0-5.357-5.357-10.715-19.645-10.715h-30.954v43.456h30.954c16.668 0 22.025-6.549 22.025-12.501.001-5.358-5.357-9.525-13.691-10.12zm-24.406-13.097h10.716c5.952 0 8.929 1.191 8.929 4.762 0 3.572-3.572 4.763-10.12 4.763h-9.524v-9.525zm13.691 27.384h-13.691v-10.12h14.287c3.571 0 7.738 1.19 7.738 4.763 0 4.761-3.571 5.357-8.334 5.357zm53.576-35.122l-27.978 43.456h15.477l5.357-8.93h30.359l4.763 8.93h17.263l-27.383-43.456h-17.858zm-2.381 26.788l10.715-18.454 10.12 18.454h-20.835zm99.412 4.167l-23.812-31.55h-20.239v43.455h13.691v-31.55l23.811 31.55h20.24V398.92h-13.691v31.55zm58.932-11.311l23.216-19.644h-18.454l-21.43 19.049v-19.049h-15.478v43.456h15.478V420.35l21.43 22.621h19.645l-24.407-23.812zm-426.22 1.191c-1.786-.595-3.571-.595-5.953-1.19-2.381-.595-4.167-.595-5.952-1.19-2.382-.595-4.167-1.19-5.357-2.381-1.191-1.19-1.786-2.381-1.786-4.167s1.19-3.572 2.977-4.762c1.785-1.19 4.762-1.786 7.738-1.786s5.953.595 8.93 1.19c2.976.595 5.357 1.786 7.143 3.572h.596v-6.548c-2.381-.596-4.763-1.786-7.144-1.786-2.977-.595-5.953-.595-8.929-.595-4.763 0-8.93 1.19-12.501 3.572-3.572 2.381-4.763 5.357-4.763 8.334 0 2.976 1.19 5.357 2.977 7.143 1.786 1.787 4.763 2.976 8.93 4.167 1.785.595 4.166.595 5.952 1.19 1.786 0 3.572.595 5.357 1.19 1.786.595 3.572 1.19 4.763 1.786 1.19.595 1.786 2.381 1.786 4.167 0 2.381-1.191 3.571-2.977 5.357-2.382 1.19-5.357 1.785-8.93 1.785-3.571-.595-6.548-.595-9.524-1.785-2.977-1.191-5.953-2.382-8.334-4.167v7.143c2.977 1.191 5.357 1.786 8.334 2.382 2.381.595 5.953.595 8.93.595 2.976 0 5.952-.595 7.738-1.19 2.381-.595 4.167-1.786 5.953-2.977 1.785-1.19 2.976-2.381 3.571-4.167.596-1.785 1.19-2.976 1.19-4.762 0-2.977-.595-5.357-2.381-7.144-2.381-.596-4.763-1.785-8.334-2.976zm34.526-9.525c-5.357 0-9.524 1.19-12.501 4.167s-4.763 7.144-4.763 11.905c0 2.977.596 5.358 1.191 7.144.595 1.786 1.785 3.572 3.571 5.357 1.786 1.19 3.571 2.382 5.357 2.977 2.381.596 4.167 1.19 7.144 1.19 1.786 0 3.571 0 5.357-.595l5.357-1.786v-5.953h-.595c-.596.596-1.191.596-1.786 1.19-.596.596-1.786.596-2.381 1.191-1.191.595-1.786.595-3.572 1.19-1.19 0-2.381.595-3.571.595-3.572 0-5.953-1.19-7.739-2.977-1.785-1.785-2.976-4.762-2.976-8.929 0-3.571 1.19-6.548 2.976-8.929 1.786-1.786 4.763-2.977 7.739-2.977 1.785 0 3.571.595 5.357 1.191 1.786.595 3.571 1.786 5.357 2.976h.596v-5.953l-5.358-1.786c-.593-.593-2.974-1.188-4.76-1.188zm36.312 0c-1.785 0-4.167.595-5.952 1.19-1.786.596-3.572 1.786-5.953 2.977v-15.477h-5.953v43.456h5.953v-23.216c1.786-1.19 2.977-1.786 4.763-2.976 1.785-.596 3.571-1.191 4.762-1.191 1.786 0 2.977 0 3.572.595 1.19.596 1.785 1.191 2.381 1.786.595.595.595 1.786 1.19 2.977v22.025h5.953v-20.24c0-3.571-1.19-6.548-2.977-8.929-1.191-1.786-4.167-2.977-7.739-2.977zm36.312 0c-4.762 0-8.929 1.19-11.905 4.167s-4.167 7.144-4.167 11.905c0 4.763 1.19 8.93 4.167 11.906s6.548 4.167 11.905 4.167c4.763 0 8.93-1.19 11.905-4.167 2.977-2.977 4.167-7.144 4.167-11.906 0-4.762-1.19-8.929-4.167-11.905a19.167 19.167 0 0 0-11.905-4.167zm7.144 25.597c-1.786 1.786-4.167 2.977-7.144 2.977s-5.357-1.19-7.144-2.977c-1.785-1.785-2.381-4.762-2.381-8.929s.596-7.144 2.381-8.929c1.786-1.786 4.167-2.977 7.144-2.977s5.357 1.191 7.144 2.977 2.381 4.762 2.381 8.929c.595 4.167-.595 7.144-2.381 8.929zm31.549-25.597c-4.763 0-8.93 1.19-11.905 4.167-2.977 2.977-4.167 7.144-4.167 11.905 0 4.763 1.19 8.93 4.167 11.906 2.976 2.977 6.548 4.167 11.905 4.167 4.762 0 8.929-1.19 11.905-4.167s4.167-7.144 4.167-11.906c0-4.762-1.19-8.929-4.167-11.905a19.172 19.172 0 0 0-11.905-4.167zm7.144 25.597c-1.786 1.786-4.167 2.977-7.144 2.977s-5.357-1.19-7.144-2.977c-1.786-1.785-2.381-4.762-2.381-8.929s.595-7.144 2.381-8.929 4.167-2.977 7.144-2.977 5.357 1.191 7.144 2.977c1.785 1.786 2.381 4.762 2.381 8.929.596 4.167-.596 7.144-2.381 8.929zm17.858 6.549h5.952v-43.456h-5.952v43.456z" data-v-9f0f88b6=""></path>
</svg>
