<svg width="900" height="900" xmlns="http://www.w3.org/2000/svg" stroke="null" style="vector-effect: non-scaling-stroke;" version="1.0" preserveAspectRatio="xMidYMid meet">
 <g stroke="null">
  <title stroke="null">Layer 1</title>
  <rect stroke="#fef700" id="svg_6" height="913.33331" width="904.00002" y="-4.66664" x="-2" opacity="NaN" fill="#fef700"/>
  <g stroke="null" transform="translate(0 620) scale(0.1 -0.1)" fill="#000000" id="svg_1">
   <path stroke="null" d="m67.86535,3775.29867c-9.88445,-11.20238 -11.20238,-37.56091 -11.20238,-240.52161l0,-228.00131l285.99008,-961.42749l285.33112,-962.08645l168.69461,-190.4404c1101.12772,-1242.80483 1320.5625,-1487.93919 1333.08281,-1489.91608c7.2486,-1.31793 17.79201,3.29482 23.72268,9.88445c5.27171,6.58963 75.12182,206.91448 154.19742,444.80024l144.31297,433.59787l23.72268,-25.04061c13.17927,-13.17927 189.78144,-210.86826 391.42421,-439.52854c201.64278,-228.66027 374.29117,-417.78275 382.19873,-421.07756c10.54341,-4.61274 18.45097,-3.95378 25.69957,1.97689c5.27171,4.61274 132.45163,375.6091 282.0363,825.02208c149.58467,448.75402 274.12874,816.45556 276.7646,816.45556c2.63585,0 328.16374,-365.72465 723.54173,-811.84282c395.37799,-446.77713 726.17758,-818.43245 734.74411,-825.02208c13.17927,-10.54341 19.10994,-11.20238 32.2892,-5.27171c15.15616,6.58963 15.81512,9.88445 20.42786,102.79828c2.63585,52.71707 3.95378,566.0495 1.97689,1140.66552l-1.97689,1044.45687l146.28986,0l146.94882,0l0,-309.71276l0,-309.0538l21.74579,-25.04061c48.76329,-56.67085 1362.07719,-1538.67936 1410.18152,-1591.39643c28.33542,-32.2892 57.32981,-57.98877 63.91944,-57.98877c5.93067,0 15.81512,5.27171 21.74579,11.86134c10.54341,11.20238 11.20238,61.94255 11.20238,590.43114l0,577.91084l512.67347,-0.65896c281.37734,0 515.30932,-0.65896 519.92206,0c20.42786,0.65896 13.17927,52.71707 -7.2486,52.71707c-9.22549,0 -989.76291,1099.80979 -997.01151,1117.6018c-2.63585,7.90756 116.63651,9.22549 870.49055,9.22549c856.65232,0 873.12641,0 880.375,12.5203c3.29482,7.2486 6.58963,15.81512 6.58963,19.7689c0,3.95378 -83.02938,100.16243 -184.50973,214.82204l-184.50973,207.57345l-823.04519,0c-740.01581,0 -824.36312,1.31793 -833.58861,10.54341c-5.93067,5.27171 -10.54341,15.15616 -10.54341,21.08683c0,5.93067 182.53284,216.79893 405.26244,468.52292c222.7296,251.72399 405.26244,459.29744 405.26244,461.27433c0,5.27171 -246.45228,284.01319 -264.90326,299.16935c-12.5203,10.54341 -65.23737,11.20238 -907.3925,11.20238c-551.5523,0 -897.50805,-2.63585 -903.43872,-6.58963c-8.56652,-5.27171 -10.54341,-69.19115 -13.17927,-488.95079l-3.29482,-483.02012l-431.62098,486.31493c-237.2268,267.53911 -437.55165,487.63286 -444.80024,489.60975c-7.2486,1.31793 -441.50543,1.97689 -965.38127,1.31793l-952.202,-1.97689l0,-19.7689c0,-13.17927 4.61274,-21.74579 13.83823,-26.35853c7.90756,-3.95378 226.68338,-247.11125 486.31493,-540.34993l471.81774,-533.76029l0,-253.70088c0,-214.82204 -1.31793,-251.72399 -9.22549,-243.81643c-4.61274,5.27171 -324.86892,367.04257 -711.68039,803.93526c-386.81147,436.89268 -710.36246,799.98148 -718.92899,806.57111c-13.17927,10.54341 -19.10994,11.86134 -32.2892,5.27171l-16.47408,-7.2486l-2.63585,-239.20369l-1.97689,-239.20369l-88.30109,-266.22118l-88.96005,-265.56222l-453.36677,511.35554c-295.87453,333.43544 -457.97951,511.35554 -465.88707,511.35554c-6.58963,0 -17.13305,-4.61274 -22.40475,-10.54341c-9.22549,-8.56652 -10.54341,-39.5378 -10.54341,-237.88576l0,-227.34235l-89.61901,-273.46978c-73.80389,-224.70649 -90.93694,-272.15185 -98.18554,-264.90326c-4.61274,5.27171 -195.71211,221.41168 -425.03134,480.38426c-229.31924,258.97259 -430.30305,484.99701 -447.4361,502.78902c-32.2892,33.60713 -45.46847,37.56091 -61.94255,19.10994z" id="svg_2"/>
   <path stroke="null" d="m7790.25655,3271.85069c-9.22549,-13.17927 -10.54341,-47.44536 -10.54341,-276.7646c0,-253.70088 0.65896,-262.92637 13.17927,-275.44667c17.79201,-17.79201 36.24298,-16.47408 52.0581,3.95378c13.17927,17.13305 13.83823,25.04061 13.83823,215.48101l0,197.03003l151.56156,-199.66589c83.68834,-110.04688 159.46912,-206.91448 168.69461,-214.82204c20.42786,-18.45097 31.63024,-19.10994 48.76329,-1.97689c12.5203,12.5203 13.17927,21.74579 13.17927,279.40045c0,233.27302 -1.31793,268.19807 -10.54341,276.7646c-11.86134,12.5203 -42.83262,13.83823 -54.03499,2.63585c-5.93067,-5.93067 -7.90756,-61.94255 -7.90756,-212.18619c0,-193.07625 -0.65896,-203.61967 -11.20238,-193.07625c-6.58963,5.93067 -79.73456,100.82139 -163.4229,210.86826c-137.06437,179.89699 -153.53845,199.00692 -172.64839,200.98381c-15.15616,1.31793 -23.06372,-1.97689 -30.97128,-13.17927z" id="svg_3"/>
   <path stroke="null" d="m8357.62397,3274.48654c-9.88445,-11.20238 -11.20238,-36.90195 -11.20238,-276.7646c0,-256.33673 0.65896,-265.56222 13.17927,-278.08252c12.5203,-12.5203 21.74579,-13.17927 217.4579,-13.17927c195.71211,0 204.93759,0.65896 217.4579,13.17927c7.2486,7.2486 13.17927,19.10994 13.17927,26.35853c0,7.2486 -5.93067,19.10994 -13.17927,26.35853c-12.5203,12.5203 -21.74579,13.17927 -191.09936,13.17927l-177.9201,0l0,232.61405c0,173.30735 -1.97689,235.90887 -8.56652,248.42917c-10.54341,21.08683 -43.49158,25.69957 -59.3067,7.90756z" id="svg_4"/>
   <path stroke="null" d="m7618.92608,2817.16599c-5.93067,-8.56652 -10.54341,-28.33542 -10.54341,-46.7864c0,-25.04061 3.29482,-34.92506 16.47408,-47.44536c19.10994,-19.7689 32.2892,-20.42786 49.42225,-3.29482c18.45097,18.45097 19.10994,85.00627 1.31793,100.82139c-17.13305,15.81512 -44.80951,13.83823 -56.67085,-3.29482z" id="svg_5"/>
  </g>
 </g>

</svg>