<?xml version="1.0" standalone="no"?>
<!DOCTYPE svg PUBLIC "-//W3C//DTD SVG 20010904//EN"
 "http://www.w3.org/TR/2001/REC-SVG-20010904/DTD/svg10.dtd">
<svg version="1.0" xmlns="http://www.w3.org/2000/svg"
 width="1461.000000pt" height="620.000000pt" viewBox="0 0 1461.000000 620.000000"
 preserveAspectRatio="xMidYMid meet">

<g transform="translate(0.000000,620.000000) scale(0.100000,-0.100000)"
fill="#000000" stroke="none">
<path d="M17 6182 c-15 -17 -17 -57 -17 -365 l0 -346 434 -1459 433 -1460 256
-289 c1671 -1886 2004 -2258 2023 -2261 11 -2 27 5 36 15 8 10 114 314 234
675 l219 658 36 -38 c20 -20 288 -320 594 -667 306 -347 568 -634 580 -639 16
-7 28 -6 39 3 8 7 201 570 428 1252 227 681 416 1239 420 1239 4 0 498 -555
1098 -1232 600 -678 1102 -1242 1115 -1252 20 -16 29 -17 49 -8 23 10 24 15
31 156 4 80 6 859 3 1731 l-3 1585 222 0 223 0 0 -470 0 -469 33 -38 c74 -86
2067 -2335 2140 -2415 43 -49 87 -88 97 -88 9 0 24 8 33 18 16 17 17 94 17
896 l0 877 778 -1 c427 0 782 -1 789 0 31 1 20 80 -11 80 -14 0 -1502 1669
-1513 1696 -4 12 177 14 1321 14 1300 0 1325 0 1336 19 5 11 10 24 10 30 0 6
-126 152 -280 326 l-280 315 -1249 0 c-1123 0 -1251 2 -1265 16 -9 8 -16 23
-16 32 0 9 277 329 615 711 338 382 615 697 615 700 0 8 -374 431 -402 454
-19 16 -99 17 -1377 17 -837 0 -1362 -4 -1371 -10 -13 -8 -16 -105 -20 -742
l-5 -733 -655 738 c-360 406 -664 740 -675 743 -11 2 -670 3 -1465 2 l-1445
-3 0 -30 c0 -20 7 -33 21 -40 12 -6 344 -375 738 -820 l716 -810 0 -385 c0
-326 -2 -382 -14 -370 -7 8 -493 557 -1080 1220 -587 663 -1078 1214 -1091
1224 -20 16 -29 18 -49 8 l-25 -11 -4 -363 -3 -363 -134 -404 -135 -403 -688
776 c-449 506 -695 776 -707 776 -10 0 -26 -7 -34 -16 -14 -13 -16 -60 -16
-361 l0 -345 -136 -415 c-112 -341 -138 -413 -149 -402 -7 8 -297 336 -645
729 -348 393 -653 736 -679 763 -49 51 -69 57 -94 29z"/>
<path d="M11736 5418 c-14 -20 -16 -72 -16 -420 0 -385 1 -399 20 -418 27 -27
55 -25 79 6 20 26 21 38 21 327 l0 299 230 -303 c127 -167 242 -314 256 -326
31 -28 48 -29 74 -3 19 19 20 33 20 424 0 354 -2 407 -16 420 -18 19 -65 21
-82 4 -9 -9 -12 -94 -12 -322 0 -293 -1 -309 -17 -293 -10 9 -121 153 -248
320 -208 273 -233 302 -262 305 -23 2 -35 -3 -47 -20z"/>
<path d="M12597 5422 c-15 -17 -17 -56 -17 -420 0 -389 1 -403 20 -422 19 -19
33 -20 330 -20 297 0 311 1 330 20 11 11 20 29 20 40 0 11 -9 29 -20 40 -19
19 -33 20 -290 20 l-270 0 0 353 c0 263 -3 358 -13 377 -16 32 -66 39 -90 12z"/>
<path d="M11476 4728 c-9 -13 -16 -43 -16 -71 0 -38 5 -53 25 -72 29 -30 49
-31 75 -5 28 28 29 129 2 153 -26 24 -68 21 -86 -5z"/>
</g>
</svg>
