<?xml version="1.0" encoding="UTF-8" standalone="no"?>
<!-- Generator: Adobe Illustrator 16.0.0, SVG Export Plug-In . SVG Version: 6.00 Build 0)  -->

<svg
   xmlns:dc="http://purl.org/dc/elements/1.1/"
   xmlns:cc="http://creativecommons.org/ns#"
   xmlns:rdf="http://www.w3.org/1999/02/22-rdf-syntax-ns#"
   xmlns:svg="http://www.w3.org/2000/svg"
   xmlns="http://www.w3.org/2000/svg"
   xmlns:sodipodi="http://sodipodi.sourceforge.net/DTD/sodipodi-0.dtd"
   xmlns:inkscape="http://www.inkscape.org/namespaces/inkscape"
   version="1.1"
   id="Layer_1"
   x="0px"
   y="0px"
   width="3000"
   height="576.02875"
   viewBox="0 0 3000 576.02875"
   enable-background="new 0 0 630 200"
   xml:space="preserve"
   inkscape:version="0.91 r13725"
   sodipodi:docname="header.__content__editorialTelevisa__mexico__cosmo__mx__header.svg"><title
     id="title4177">Cosmopolitan Logo</title><metadata
     id="metadata33"><rdf:RDF><cc:Work
         rdf:about=""><dc:format>image/svg+xml</dc:format><dc:type
           rdf:resource="http://purl.org/dc/dcmitype/StillImage" /><dc:title>Cosmopolitan Logo</dc:title></cc:Work></rdf:RDF></metadata><defs
     id="defs31" /><sodipodi:namedview
     pagecolor="#ffffff"
     bordercolor="#666666"
     borderopacity="1"
     objecttolerance="10"
     gridtolerance="10"
     guidetolerance="10"
     inkscape:pageopacity="0"
     inkscape:pageshadow="2"
     inkscape:window-width="1366"
     inkscape:window-height="715"
     id="namedview29"
     showgrid="false"
     inkscape:showpageshadow="false"
     fit-margin-top="20"
     fit-margin-right="20"
     fit-margin-bottom="20"
     fit-margin-left="20"
     inkscape:zoom="0.27297297"
     inkscape:cx="1500"
     inkscape:cy="288.01436"
     inkscape:window-x="-8"
     inkscape:window-y="-8"
     inkscape:window-maximized="1"
     inkscape:current-layer="Layer_1" /><g
     id="g4174"
     style="fill:#ec008c;fill-opacity:1;stroke:none"
     transform="matrix(4.707812,0,0,4.707812,17.195542,-201.13843)"><path
       id="polygon5"
       d="m 29.0625,46.972656 c -15.848,0 -28.46679687,15.080641 -28.46679688,56.931644 10e-9,35.998 7.07879688,56.92578 28.46679688,56.92578 23.39,0 26.158203,-23.0793 26.158203,-42.1543 l -16.925781,-0.77344 c -0.313,15.85 -1.846844,25.99805 -8.464844,25.99805 -6.154,0 -8.304687,-3.99614 -8.304687,-39.99414 0,-37.237 4.145687,-40.009766 8.304687,-40.009766 4.922,0 7.228516,6.771641 7.228516,24.931641 L 54.90625,88.210938 c 0,-20.001 -2.76875,-41.238282 -25.84375,-41.238282 z m 56.882812,0.002 c -17.688,0 -29.230468,13.695641 -29.230468,56.931644 0,43.23 11.542468,56.92578 29.230468,56.92578 17.690998,0 29.232418,-13.69678 29.232418,-56.92578 0,-5.981016 -0.22884,-11.377153 -0.65625,-16.269534 6.88622,22.975814 34.78321,28.522754 34.78321,45.652344 0,4.462 -2.30678,10.61133 -8.92578,10.61133 -8.617,0 -8.61719,-10.76392 -8.61719,-16.91992 l 0,-0.002 -17.84766,0 c 0,15.084 4.31322,33.85156 25.69922,33.85156 11.75658,0 19.90049,-5.71452 24.13672,-14.35156 l 0,12.19921 14.77344,0 0,-80.314452 0.30468,0 13.38672,80.314452 11.07618,0 13.54296,-80.314452 0.3086,0 0,80.314452 17.8457,0 0,-52.67187 c 0.37406,41.55836 11.81743,54.82617 29.2168,54.82617 15.93957,0 26.88232,-11.12919 28.89453,-44.94531 l 0,42.79101 20,0 0,-43.84961 8.00391,0 c 14.63252,0 22.53229,-8.04155 25.30468,-20.917967 -0.15115,3.146917 -0.23632,6.463397 -0.23632,9.996097 -10e-6,43.23 11.54051,56.92578 29.22851,56.92578 17.699,0 29.23828,-13.69678 29.23828,-56.92578 0,-43.236003 -11.53928,-56.931644 -29.23828,-56.931644 -14.10506,0 -24.29373,8.728519 -27.8457,34.181641 -0.25015,-23.130839 -12.07465,-32.023438 -34.45508,-32.023438 l -20,0 0,42.791016 C 291.0874,58.102751 280.14465,46.974609 264.20508,46.974609 c -17.39937,0 -28.84274,13.267963 -29.2168,54.832031 l 0,-52.673828 -26.0039,0 -9.38477,56.154298 -0.30469,0 -8.92773,-56.154298 -26.61719,0 0,24.246094 c -1.86027,-15.871785 -9.12185,-26.404297 -24.9043,-26.404297 -16.74542,0 -25.65545,13.104868 -25.84375,29.322266 C 108.87353,54.575944 99.116974,46.974609 85.945312,46.974609 Z m 319.121098,2.158203 0,109.544921 45.54687,0 0,-16.92578 -25.54297,0 0,-92.619141 -20.0039,0 z m 48.75,0 0,109.544921 20,0 0,-109.544921 -20,0 z m 23.36328,0 0,16.923829 17.23437,0 0,92.621092 20.00196,0 0,-92.621092 17.00781,0 -13.00586,92.621092 16.76953,0 2.76562,-24.31054 16.16602,0 2.91406,24.31054 18.14844,0 1.08789,0 15.83399,0 0,-66.316405 0.30859,0 21.38867,66.316405 15.53711,0 0,-109.544921 -15.99805,0 0,57.845711 -0.30664,0 -18.30859,-57.845711 -19.54297,0 0,100.746101 -12.45703,-100.746101 -28.92383,0 -2.15625,15.355469 0,-15.355469 -54.46484,0 z M 85.945312,63.896484 c 4.619,0 7.384766,4.770844 7.384766,28.464844 l 0,23.082032 c 0,23.693 -2.765766,28.45703 -7.384766,28.45703 -4.618999,0 -7.386718,-4.76403 -7.386718,-28.45703 l 0,-23.082032 c 0,-23.694 2.767719,-28.464844 7.386718,-28.464844 z m 52.431638,0 c 8.002,0 8.00196,10.310797 8.00196,16.466797 l 17.37109,0 0,34.749999 c -9.02221,-19.102979 -32.9082,-26.110496 -32.9082,-41.212889 0,-6.001 2.77015,-10.003907 7.53515,-10.003907 z m 125.82813,0 c 4.612,0 7.38281,4.770844 7.38281,28.464844 l 0,23.082032 c 0,23.693 -2.77081,28.45703 -7.38281,28.45703 -4.616,0 -7.38672,-4.76403 -7.38672,-28.45703 l 0,-23.082032 c 0,-23.694 2.77072,-28.464844 7.38672,-28.464844 z m 111.19726,0 c 4.623,0 7.38672,4.770844 7.38672,28.464844 l 0,23.082032 c 0,23.693 -2.76372,28.45703 -7.38672,28.45703 -4.613,0 -7.38281,-4.76403 -7.38281,-28.45703 l 0,-23.082032 c 0,-23.694 2.76981,-28.464844 7.38281,-28.464844 z m -62.14062,2.160157 1.5293,0 c 6.617,0 12.77343,0.459593 12.77343,16.308593 0,13.23 -4.46318,16.464844 -12.61718,16.464844 l -1.68555,0 0,-32.773437 z m 232.99805,0 0.31054,0 5.84375,52.312499 -12.45117,0 6.29688,-52.312499 z"
       style="fill:#ec008c;fill-opacity:1;stroke:none"
       inkscape:connector-curvature="0" /></g></svg>