<?xml version="1.0" encoding="utf-8"?>
<!-- Generator: Adobe Illustrator 14.0.0, SVG Export Plug-In . SVG Version: 6.00 Build 43363)  -->
<!DOCTYPE svg PUBLIC "-//W3C//DTD SVG 1.1//EN" "http://www.w3.org/Graphics/SVG/1.1/DTD/svg11.dtd">
<svg version="1.1" xmlns="http://www.w3.org/2000/svg" xmlns:xlink="http://www.w3.org/1999/xlink" x="0px" y="0px"
	 width="1542.977px" height="642.07px" viewBox="0 0 1542.977 642.07" enable-background="new 0 0 1542.977 642.07"
	 xml:space="preserve">

<g id="Layer_6">
	<polygon fill="#99CC00" points="1340.422,0 1225.391,247.927 1117.383,0 952.344,0 1141.375,383.681 1141.375,586.88 
		1292.422,586.88 1292.422,383.681 1494.445,0 	"/>
</g>
<g id="Layer_5">
	<path fill="#FFCC00" d="M1094.286,397.696V288.078l-0.007-0.015c-0.199-0.999-32.544-162.737-114.773-232.932l-0.003-0.007
		C964.448,53.094,947.558,52,928.417,52c-15.247,0-29.717,0.875-43.208,2.822c-25.756,3.718-47.948,11.349-65.186,24.28
		c-27.109,18.883-42.703,50.914-42.703,101h0.003h113.325h0.003c0-29.761,2.693-57.504,33.146-62.445
		c3.149-0.511,6.596-0.778,10.367-0.778c41.867,0,46.797,25.441,46.797,60.75v32.035c-1.37-0.021-2.738-0.04-4.107-0.058
		c-63.274-0.861-125.507,1.463-165.463,32.121c0,0,0,0-0.001,0c-27.068,20.758-43.922,54.512-43.922,109.167
		c0,63.138,22.563,116.849,81.906,129.427c0.001-0.021,0.003-0.04,0.004-0.061c-0.001,0.021-0.001,0.039-0.002,0.06
		c8.594,1.806,17.953,2.789,28.125,2.789c23.475,0,43.347-4.513,60.372-13.705c19.294-10.418,34.934-26.848,48.02-49.532h1.642
		l4.922,55.016h0.002h107.568C1097.575,449.431,1094.286,423.169,1094.286,397.696z M923.472,411.663
		c-37.758,0-42.688-36.129-42.688-65.697c0-43.874,15.048-59.963,39.309-66.31c16.6-4.342,37.513-4.122,60.868-5.12
		c0,37.404,7.323,106.896-28.872,129.682C944.576,408.946,935.188,411.663,923.472,411.663z"/>
</g>
<g id="Layer_4">
	<path fill="#000099" d="M811.39,241.728C811.391,241.728,811.391,241.728,811.39,241.728
		c-16.593-17.618-40.265-28.642-74.202-28.642c-41.672,0-70.272,12.25-93.969,47.383h-1.633V43.941H526.367l0.001,589.953h109.5
		v-45.762h1.633c21.242,40.035,53.117,53.938,97.227,53.938c95.306,0,111.853-84.466,114.648-161.75 M737.188,423.896
		c0,103.777-7.352,147.091-49.03,147.091c-39.211,0-46.57-43.313-46.57-147.091c0-82.525-0.82-139.71,46.57-139.71
		C738,284.185,737.188,341.367,737.188,423.896z"/>
</g>
<g id="Layer_3">
	<path fill="#FF0000" d="M526.367,238.904L526.367,238.904c-17.172-7.583-37.406-13.985-61.359-19.023
		c-41.094-8.648-92.789-13.383-157.961-13.383C29.82,206.497,0,291.438,0,390.773c0,113.729,35.766,193.642,307.047,193.642
		c62.406,0,115.773-6.207,158.603-15.712c22.891-5.104,43.491-12.185,60.719-19.694l0,0c1.358-0.586,37.96-28.711,25.621-66.14
		c-3.067-9.303-25.621-29.646-25.621-29.646h-0.001H466.29l-1.281-0.137H396.47c0,31.977-14.891,66.526-89.422,66.526
		c-92.414,0-95.391-64.78-95.391-107.978h314.711v0.001C526.367,411.638,590.656,340.203,526.367,238.904z M403.938,354.781H211.656
		c0-30.957-1.492-85.664,95.391-85.664C406.914,269.118,403.938,319.504,403.938,354.781z"/>
</g>
<g id="Layer_1">
	<path id="ay" fill="#999900" d="M979.5,55.125l114.781,232.953v-97.305C1094.281,125.071,1079.953,68.696,979.5,55.125"/>
	<path id="ba" fill="#CC6600" d="M849.945,424.712c0-58.97,1.586-140.375-38.557-182.984
		c-27.068,20.758-43.922,54.512-43.922,109.167c0,63.138,22.563,116.849,81.906,129.427
		C850.086,460.854,849.945,441.813,849.945,424.712"/>
	<path id="r" d="M1519.561,18.079v-4.413h4.158c1.852,0,3.838,0,3.838,1.985c0,1.945-0.752,2.472-2.881,2.428H1519.561
		 M1519.561,21.625h2.781l4.274,7.911h4.875l-4.688-7.911c3.408-0.434,5.261-1.842,5.261-5.397c0-1.985-0.52-4.119-2.271-5.21
		c-1.413-0.863-3.552-0.908-5.196-0.908h-9.292v19.426h4.259v-7.911H1519.561z M1523.547,38.984c10.648,0,19.43-8.738,19.43-19.441
		c0-10.695-8.779-19.441-19.43-19.441c-10.766,0-19.453,8.746-19.453,19.441C1504.094,30.247,1512.781,38.984,1523.547,38.984z
		 M1523.555,3.821c8.26,0,15.729,6.563,15.729,15.723c0,9.113-7.469,15.727-15.729,15.727c-8.365,0-15.719-6.613-15.719-15.727
		C1507.836,10.384,1515.188,3.821,1523.555,3.821z"/>
</g>
<g id="Layer_2">
	<path id="ebtop" fill="#990033" d="M610.93,453.224h-84.563v95.785c1.358-0.586,2.758-1.176,4.07-1.776
		C581.109,524.919,607.945,492.521,610.93,453.224"/>
	<path id="ebbottom" fill="#990033" d="M614.094,411.638c4.742-74.125-6.352-136.848-87.727-172.734v172.734H614.094"/>
</g>
</svg>
