<svg width="580" height="580" xmlns="http://www.w3.org/2000/svg" xmlns:undefined="http://www.inkscape.org/namespaces/inkscape" stroke="null" style="vector-effect: non-scaling-stroke;" version="1.0" preserveAspectRatio="xMidYMid meet">
 <g stroke="null" id="Layer_1">
  <title stroke="null">Layer 1</title>
  <rect stroke="null" transform="rotate(10.4792 425 13.9723)" id="svg_7" height="141" width="53" y="-56.52768" x="398.5" fill="#ffffff"/>
  <g stroke="null">

   <metadata stroke="null" id="svg_18">image/svg+xml</metadata>
   <g stroke="null" id="svg_2"  />
  </g>
  <g stroke="null" id="svg_23">
   <path stroke="null" stroke-dashoffset="0" stroke-miterlimit="4" stroke-linecap="round" stroke-width="5.208" fill-rule="nonzero" fill="#2e3045" clip-rule="nonzero"  id="svg_12" d="m111.61154,45.46688a22.74605,22.74605 0 0 0 -22.40262,23.07788l0,179.34911l0,24.68409l0,85.12937c0,52.06914 39.07695,96.82819 89.66746,96.82819l222.23541,0c50.59052,0 89.68172,-44.75906 89.68172,-96.82819l0,-109.81347c0,-52.06914 -39.0912,-96.82829 -89.68172,-96.82829l-222.23541,0c-16.2191,0 -31.24633,4.61716 -44.19047,12.58378l0,-95.1046a22.74605,22.74605 0 0 0 -23.07438,-23.07788zm67.26485,151.08989l222.23541,0c23.56987,0 44.18696,21.32561 44.18696,51.33711l0,109.81347c0,30.0115 -20.6171,51.33346 -44.18696,51.33346l-222.23541,0c-23.56987,0 -44.19047,-21.32197 -44.19047,-51.33346l0,-85.12937l0,-24.68409c0,-30.0115 20.6206,-51.33711 44.19047,-51.33711z"/>
   <circle stroke="null" stroke-dashoffset="0" stroke-miterlimit="4" stroke-linecap="round" stroke-width="5.208" fill="#ec652d" r="36.18521" cy="306.54111" cx="218.1077" id="svg_10"/>
   <circle stroke="null" stroke-dashoffset="0" stroke-miterlimit="4" stroke-linecap="round" stroke-width="5.208" fill="#ec652d" r="36.18514" cy="304.17308" cx="365.60537" id="svg_9"/>
  </g>
 </g>

</svg>