<?xml version="1.0" encoding="UTF-8"?>
<svg id="Layer_1" xmlns="http://www.w3.org/2000/svg" viewBox="0 0 35.52698 20.755"><defs><style>.cls-1{fill:#fff;}.cls-2{fill:#f47b29;}.cls-3{fill:#231f20;}.cls-4{fill:#f47529;}</style></defs><title>geek.squad.logo.old</title><path class="cls-1" d="M.14508,10.51159c0-5.73,7.954-10.376,17.763-10.376,9.811,0,17.764,4.646,17.764,10.376,0,5.733-7.953,10.379-17.764,10.379-9.809,0-17.763-4.646-17.763-10.379" transform="translate(-0.14508 -0.13559)"/><path class="cls-2" d="M17.90973,1.44988c-9.063,0-16.41,4.059-16.41,9.062a5.277,5.277,0,0,0,.442,2.096h5.355c-.254-.358-.592-.232-1.001-.996a5.12523,5.12523,0,0,1-.253-.665,5.72318,5.72318,0,0,1,1.183-4.138,15.92831,15.92831,0,0,1,3.045-3.104,8.65488,8.65488,0,0,1,3.805-1.7c.93-.074,2.535,0,2.453,1.035,0,.147.252.147.337.222a3.49658,3.49658,0,0,1-3.128,3.916c-.085,0-.25494-.148-.171-.297.676-.959,2.199-2.658.593-3.324-.677-.295-1.268.075-1.859.369a10.08111,10.08111,0,0,0-3.468,3.4c-.593,1.033-1.438,2.143-1.016,3.325a1.86665,1.86665,0,0,0,.762.812,2.041,2.041,0,0,0,.931.149,3.431,3.431,0,0,0,2.874-1.627c-1.35205,0-2.621.297-3.974.223-.338-.739.593-1.404,1.353-1.552a10.96127,10.96127,0,0,1,4.397,0,.61054.61054,0,0,1,.423.813,8.10607,8.10607,0,0,1-3.401,3.139h3.495a1.96136,1.96136,0,0,1-.328-2.178,8.0699,8.0699,0,0,1,2.79-3.179,3.95865,3.95865,0,0,1,2.708-.739.70906.70906,0,0,1,.505,1.11,6.08233,6.08233,0,0,1-4.65,3.103c-.338.074-.169.444-.084.665a.964.964,0,0,0,1.099.518c.33905-.149.591-.518.846-.518.711,0-.017.916-.391,1.218h2.054c-1.359-.969-.318-2.707.516-3.658a10.25621,10.25621,0,0,1,2.876-2.289c.591-.222,1.52-.592,2.02905-.074.423.516.084,1.109-.25305,1.552a6.92879,6.92879,0,0,1-4.399,2.586.90207.90207,0,0,0,.509,1.034c.676.296,1.098-.296,1.606-.443.254-.074.339.223.254.443a2.25093,2.25093,0,0,1-.765.849h1.191a3.86764,3.86764,0,0,1,.336-1.366,51.55687,51.55687,0,0,0,3.04206-5.985c0-.22.085-.444.085-.666.17-.59.929-.812,1.521-1.034a.34314.34314,0,0,1,.34.295,4.49466,4.49466,0,0,1-.422,1.405c-.339.887-1.184,1.476-1.352,2.439a3.526,3.526,0,0,1,2.45-.74c.424.074.16706.592-.16894.74a12.06444,12.06444,0,0,0-3.551,2.289c0,.075,0,.148.083.148.509-.148,1.355-.591,1.608-.073.085.295-.169.739-.084,1.033a.5516.5516,0,0,0,.676.297c.593-.148,1.268-1.182,1.43695-.591.249.649-.572,1.297-1.16,1.809l6.249-.002a5.28551,5.28551,0,0,0,.441-2.095c0-5.002-7.347-9.061-16.41-9.061" transform="translate(-0.14508 -0.13559)"/><path class="cls-2" d="M22.70069,7.76919a2.8308,2.8308,0,0,0-2.197,1.626c0,.074.253.074.337.074.946,0,2.115-.813,1.86005-1.7" transform="translate(-0.14508 -0.13559)"/><path class="cls-2" d="M18.40772,7.84189c0-.073-.169-.073-.25305-.073a3.15211,3.15211,0,0,0-2.03,1.7l-.085.074a2.17448,2.17448,0,0,0,2.36805-1.701" transform="translate(-0.14508 -0.13559)"/><path class="cls-2" d="M23.80072,12.60779h1.952c-.387-.372-.436-.937-.684-1.44a3.1544,3.1544,0,0,0-1.268,1.44" transform="translate(-0.14508 -0.13559)"/><path class="cls-3" d="M17.90973.71548c-9.47.001-17.145,4.385-17.145,9.797,0,5.411,7.675,9.799,17.145,9.799,9.468,0,17.145-4.39,17.145-9.801,0-5.41-7.677-9.795-17.145-9.795" transform="translate(-0.14508 -0.13559)"/><path class="cls-1" d="M31.78424,14.725v-.132h.088c.046,0,.091.012.091.064,0,.063-.049.068-.103.068Zm0,.053h.076l.11.182h.07l-.12006-.183a.11141.11141,0,0,0,.11-.117c0-.083-.05-.12-.149-.12h-.159v.42h.062Zm.081.335a.36265.36265,0,1,0-.373-.363.36142.36142,0,0,0,.373.363m-.301-.363a.29706.29706,0,1,1,.301.303.29532.29532,0,0,1-.301-.303m-21.073.882s-.085,1.294-2.577,1.184c0,0-2.62.221-2.831-1.221h1.985s.127.444.97205.37c0,0,.593.074.593-.295,0,0,.168-.295-1.101-.37a9.63558,9.63558,0,0,1-1.31-.185s-1.139-.222-1.099-1.106c0,0-.225-1.16,2.438-1.119,0,0,2.521-.174,2.761,1.192h-1.816a1.05959,1.05959,0,0,0-.932-.443s-.591-.038-.633.37c0,0-.25306.293,1.522.405,0,0,1.985-.112,2.028,1.218m7.95-1.587v1.483a1.08043,1.08043,0,0,1-.971.511.6908.6908,0,0,1-.74005-.392V14.063h-1.309v1.532c0,1.383,1.542,1.257,1.542,1.257a2.59951,2.59951,0,0,0,1.478-.419v.306h1.312V14.045Zm11.16-.963v3.695h-1.395v-.018c-.043-.04-.043-.145-.043-.202a3.70361,3.70361,0,0,1-2.115.146,1.3977,1.3977,0,0,1-.758-2.363,2.40782,2.40782,0,0,1,2.788-.147l.128.061V13.082Zm-1.523,1.921a1.28949,1.28949,0,0,0-1.522,0,.63872.63872,0,0,0-.08405.666,1.23433,1.23433,0,0,0,.84406.37c.67694.075,1.149-.545.762-1.036m-3.127,1.221-.041.515h-1.312l-.379-.255a2.72342,2.72342,0,0,1-1.52.368s-1.586.111-1.692-.923c0,0-.043-.889,1.734-.926h1.478s.252-.405-1.015-.405a4.52419,4.52419,0,0,0-1.26795.184l-.46405-.552a5.97018,5.97018,0,0,1,1.81806-.332s2.55694-.185,2.28094,1.254c0,0-.043,1.035.38,1.072m-1.703-.679-.788-.06c-.805,0-.889.296-.889.296,0,.443.71906.333.71906.333,1.055,0,.95794-.569.95794-.569m-9.418-2.313h1.309v3.545h-1.309V15.746a3.02143,3.02143,0,0,1-2.874-.187,1.25916,1.25916,0,0,1,.169-2.03,2.2587,2.2587,0,0,1,1.607-.387,2.20828,2.20828,0,0,1,1.098.386Zm-.014,1.391c0-.375-.471-.714-.91706-.714a.82566.82566,0,0,0-.87195.689c0,.376.469.678.915.678s.874-.279.874-.653" transform="translate(-0.14508 -0.13559)"/><path class="cls-4" d="M16.03967,9.54479l.085-.075a3.15578,3.15578,0,0,1,2.03-1.701c.084,0,.25305,0,.25305.075a2.17706,2.17706,0,0,1-2.36805,1.701m4.464-.148a2.83311,2.83311,0,0,1,2.197-1.628c.255.888-.914,1.701-1.86,1.701-.084,0-.337,0-.337-.073m7.126,3.211c.588-.511,1.409-1.158,1.16-1.807-.169-.592-.844.442-1.437.591a.55252.55252,0,0,1-.676-.297c-.085-.294.167-.739.084-1.034-.253-.516-1.099-.075-1.605.074-.087,0-.087-.074-.087-.149a12.13011,12.13011,0,0,1,3.552-2.289c.338-.148.593-.666.169-.738a3.51527,3.51527,0,0,0-2.45.738c.168-.963,1.013-1.552,1.35205-2.439a4.4946,4.4946,0,0,0,.422-1.405.34259.34259,0,0,0-.338-.296c-.593.224-1.353.446-1.523,1.035,0,.222-.085.445-.085.666a51.628,51.628,0,0,1-3.042,5.985,3.862,3.862,0,0,0-.336,1.365h-1.191a2.24521,2.24521,0,0,0,.765-.847c.085-.221,0-.518-.254-.444-.508.148-.93.739-1.606.444a.90376.90376,0,0,1-.509-1.034,6.92542,6.92542,0,0,0,4.398-2.587c.338-.443.676-1.035.254-1.552-.509-.517-1.438-.148-2.029.073a10.25939,10.25939,0,0,0-2.876,2.291c-.834.951-1.875,2.688-.516,3.656h-2.054c.375-.302,1.102-1.216.391-1.216-.255,0-.507.369-.846.518a.96518.96518,0,0,1-1.099-.518c-.085-.221-.254-.591.084-.665a6.08336,6.08336,0,0,0,4.65-3.104.71.71,0,0,0-.503-1.111,3.97761,3.97761,0,0,0-2.711.74,8.07426,8.07426,0,0,0-2.789,3.179,1.958,1.958,0,0,0,.329,2.177h-3.496a8.07942,8.07942,0,0,0,3.401-3.138.61085.61085,0,0,0-.423-.813,10.96062,10.96062,0,0,0-4.397.002c-.76.147-1.692.811-1.353,1.55,1.353.075,2.623-.223,3.974-.223a3.42943,3.42943,0,0,1-2.874,1.628,2.041,2.041,0,0,1-.931-.149,1.87524,1.87524,0,0,1-.761-.812c-.423-1.183.422-2.291,1.015-3.326a10.08734,10.08734,0,0,1,3.468-3.399c.592-.294,1.182-.665,1.859-.371,1.606.666.083,2.365-.593,3.325-.084.149.086.297.171.297a3.49529,3.49529,0,0,0,3.128-3.916c-.085-.075-.337-.075-.337-.222.083-1.035-1.524-1.108-2.454-1.035a8.70014,8.70014,0,0,0-3.804,1.699,15.98677,15.98677,0,0,0-3.045,3.105,5.7222,5.7222,0,0,0-1.183,4.138,5.20427,5.20427,0,0,0,.25305.666c.409.764.747.638,1.001.994h-5.354a5.25648,5.25648,0,0,1-.443-2.095c0-5.003,7.347-9.063,16.41-9.063s16.41,4.06,16.41,9.062a5.277,5.277,0,0,1-.442,2.096Zm-3.829,0a3.14261,3.14261,0,0,1,1.268-1.437c.248.5.297,1.067.684,1.437Z" transform="translate(-0.14508 -0.13559)"/></svg>