<?xml version="1.0" encoding="UTF-8" standalone="no"?>
<!-- Created with Inkscape (http://www.inkscape.org/) -->

<svg
   xmlns:dc="http://purl.org/dc/elements/1.1/"
   xmlns:cc="http://creativecommons.org/ns#"
   xmlns:rdf="http://www.w3.org/1999/02/22-rdf-syntax-ns#"
   xmlns:svg="http://www.w3.org/2000/svg"
   xmlns="http://www.w3.org/2000/svg"
   xmlns:xlink="http://www.w3.org/1999/xlink"
   xmlns:sodipodi="http://sodipodi.sourceforge.net/DTD/sodipodi-0.dtd"
   xmlns:inkscape="http://www.inkscape.org/namespaces/inkscape"
   width="693.1875"
   height="900.0625"
   id="svg7518"
   version="1.1"
   inkscape:version="0.48.4 r9939"
   sodipodi:docname="Nieuw document 3">
  <defs
     id="defs7520">
    <linearGradient
       gradientTransform="translate(53.538086,-39.877792)"
       gradientUnits="userSpaceOnUse"
       y2="-32.554188"
       x2="88.640884"
       y1="-32.554188"
       x1="73.236061"
       id="linearGradient6983"
       xlink:href="#linearGradient21651"
       inkscape:collect="always" />
    <linearGradient
       gradientTransform="translate(53.538086,-39.877792)"
       gradientUnits="userSpaceOnUse"
       y2="-32.301643"
       x2="70.205605"
       y1="-32.301643"
       x1="53.538086"
       id="linearGradient6973"
       xlink:href="#linearGradient3984"
       inkscape:collect="always" />
    <linearGradient
       id="linearGradient3984">
      <stop
         id="stop3986"
         offset="0"
         style="stop-color:#a3a3a3;stop-opacity:1;" />
      <stop
         id="stop3988"
         offset="0.14285725"
         style="stop-color:#b0b0b0;stop-opacity:1;" />
      <stop
         style="stop-color:#d1d1d1;stop-opacity:1;"
         offset="0.32142863"
         id="stop3990" />
      <stop
         id="stop3992"
         offset="0.5"
         style="stop-color:#bdbdbd;stop-opacity:1;" />
      <stop
         style="stop-color:#e5e5e5;stop-opacity:1;"
         offset="0.75"
         id="stop3994" />
      <stop
         id="stop3996"
         offset="0.875"
         style="stop-color:#cccccc;stop-opacity:1;" />
      <stop
         style="stop-color:#cccccc;stop-opacity:1;"
         offset="1"
         id="stop3998" />
    </linearGradient>
    <linearGradient
       gradientUnits="userSpaceOnUse"
       y2="447.2558"
       x2="438.36752"
       y1="449.39865"
       x1="249.66121"
       id="linearGradient5869"
       xlink:href="#linearGradient4070-8-2-8-8-7-0-6-5"
       inkscape:collect="always"
       gradientTransform="translate(40,54.28125)" />
    <linearGradient
       id="linearGradient21651">
      <stop
         style="stop-color:#cc992d;stop-opacity:1;"
         offset="0"
         id="stop21653" />
      <stop
         style="stop-color:#e1a832;stop-opacity:1;"
         offset="0.14285725"
         id="stop21655" />
      <stop
         id="stop21657"
         offset="0.32142863"
         style="stop-color:#e5cf5c;stop-opacity:1;" />
      <stop
         style="stop-color:#e5c547;stop-opacity:1;"
         offset="0.5"
         id="stop21659" />
      <stop
         id="stop21661"
         offset="0.75"
         style="stop-color:#ffffa3;stop-opacity:1;" />
      <stop
         style="stop-color:#ffd94d;stop-opacity:1;"
         offset="0.875"
         id="stop21663" />
      <stop
         id="stop21665"
         offset="1"
         style="stop-color:#ffdb4e;stop-opacity:1;" />
    </linearGradient>
    <linearGradient
       gradientUnits="userSpaceOnUse"
       y2="365.42957"
       x2="440.02328"
       y1="370.42957"
       x1="178.61752"
       id="linearGradient3953"
       xlink:href="#linearGradient21651"
       inkscape:collect="always"
       gradientTransform="translate(40,54.28125)" />
    <linearGradient
       id="linearGradient4070-8-2-8-8-7-0-6-5">
      <stop
         id="stop4072-1-2-6-4-1-4-7-9"
         offset="0"
         style="stop-color:#a3a3a3;stop-opacity:1;" />
      <stop
         id="stop4074-8-0-7-0-4-8-7-1"
         offset="0.14285725"
         style="stop-color:#b0b0b0;stop-opacity:1;" />
      <stop
         style="stop-color:#d1d1d1;stop-opacity:1;"
         offset="0.32142863"
         id="stop4076-6-1-0-3-7-5-9-8" />
      <stop
         id="stop4078-0-2-8-7-6-7-6-1"
         offset="0.5"
         style="stop-color:#bdbdbd;stop-opacity:1;" />
      <stop
         style="stop-color:#e5e5e5;stop-opacity:1;"
         offset="0.75"
         id="stop4080-2-7-1-8-8-3-4-7" />
      <stop
         id="stop4082-4-7-8-3-2-3-1-8"
         offset="0.875"
         style="stop-color:#cccccc;stop-opacity:1;" />
      <stop
         style="stop-color:#cccccc;stop-opacity:1;"
         offset="1"
         id="stop4084-9-0-3-1-3-0-9-6" />
    </linearGradient>
    <linearGradient
       gradientUnits="userSpaceOnUse"
       y2="365.30093"
       x2="308.78677"
       y1="363.15808"
       x1="127.11958"
       id="linearGradient5861"
       xlink:href="#linearGradient4070-8-2-8-8-7-0-6-5"
       inkscape:collect="always"
       gradientTransform="translate(40,54.28125)" />
    <linearGradient
       inkscape:collect="always"
       xlink:href="#linearGradient21651"
       id="linearGradient8818"
       x1="307.46844"
       y1="48.784176"
       x2="643.1109"
       y2="258.8959"
       gradientUnits="userSpaceOnUse"
       gradientTransform="translate(18.526586,1.46875)" />
    <linearGradient
       inkscape:collect="always"
       xlink:href="#linearGradient21651"
       id="linearGradient8826"
       x1="-101.46027"
       y1="513.28485"
       x2="276.60837"
       y2="254.68579"
       gradientUnits="userSpaceOnUse"
       gradientTransform="translate(18.526586,1.46875)" />
    <linearGradient
       inkscape:collect="always"
       xlink:href="#linearGradient21651"
       id="linearGradient8834"
       x1="-45.577019"
       y1="402.09521"
       x2="292.08548"
       y2="652.61304"
       gradientUnits="userSpaceOnUse"
       gradientTransform="translate(18.526586,1.46875)" />
    <linearGradient
       inkscape:collect="always"
       xlink:href="#linearGradient21651"
       id="linearGradient8842"
       x1="336.43805"
       y1="883.09729"
       x2="627.63373"
       y2="656.82312"
       gradientUnits="userSpaceOnUse"
       gradientTransform="translate(18.526586,1.46875)" />
  </defs>
  <sodipodi:namedview
     id="base"
     pagecolor="#ffffff"
     bordercolor="#666666"
     borderopacity="1.0"
     inkscape:pageopacity="0.0"
     inkscape:pageshadow="2"
     inkscape:zoom="0.49497475"
     inkscape:cx="401.61165"
     inkscape:cy="545.83079"
     inkscape:document-units="px"
     inkscape:current-layer="layer1"
     showgrid="false"
     fit-margin-top="0"
     fit-margin-left="0"
     fit-margin-right="0"
     fit-margin-bottom="0"
     inkscape:window-width="1600"
     inkscape:window-height="837"
     inkscape:window-x="-8"
     inkscape:window-y="-8"
     inkscape:window-maximized="1" />
  <metadata
     id="metadata7523">
    <rdf:RDF>
      <cc:Work
         rdf:about="">
        <dc:format>image/svg+xml</dc:format>
        <dc:type
           rdf:resource="http://purl.org/dc/dcmitype/StillImage" />
        <dc:title></dc:title>
      </cc:Work>
    </rdf:RDF>
  </metadata>
  <g
     inkscape:label="Laag 1"
     inkscape:groupmode="layer"
     id="layer1"
     transform="translate(13.90625,-71.40625)">
    <path
       inkscape:connector-curvature="0"
       sodipodi:nodetypes="ccccccc"
       id="path4614-96"
       d="m 330.00229,74.58339 -343.200352,0 0,608.752 c 0.13068,58.86974 17.8392596,107.04063 67.65012,135.67494 L 287.1024,910.05534 c 21.0389,7.74544 40.12049,26.66007 43.38338,59.95723 L 330.00229,74.58339 z"
       style="fill:#0081c2;fill-opacity:1;stroke:#000000;stroke-width:0.99999994px;stroke-linecap:butt;stroke-linejoin:miter;stroke-opacity:0" />
    <path
       inkscape:connector-curvature="0"
       sodipodi:nodetypes="ccccccc"
       id="path4614-2-8"
       d="m 333.26188,75.722713 343.20043,0 0,608.751997 c -0.13068,58.86974 -17.83927,107.04063 -67.65013,135.67495 l -232.65034,91.04501 c -21.03898,7.74544 -40.12058,26.66006 -43.38345,59.95723 -52.75755,-304.20185 -70.6493,-604.63148 0.48349,-895.429187 z"
       style="fill:#0081c2;fill-opacity:1;stroke:#000000;stroke-width:0.99999994px;stroke-linecap:butt;stroke-linejoin:miter;stroke-opacity:0" />
    <path
       inkscape:connector-curvature="0"
       sodipodi:nodetypes="ccccccc"
       id="path2878-8"
       d="m 324.94428,70.443141 -356.685382,0 0,571.652679 c -2.0714,62.04248 12.10855,151.31071 115.006203,183.93875 l 151.674559,55.90292 c 40.17999,13.86298 80.20691,27.9153 90.00462,79.34611 l 0,-890.840459 z"
       style="opacity:0;fill:#286eb3;fill-opacity:1;stroke:#000000;stroke-width:0.99999994px;stroke-linecap:butt;stroke-linejoin:miter;stroke-opacity:0" />
    <path
       inkscape:connector-curvature="0"
       sodipodi:nodetypes="ccccccc"
       id="path2878-1-9"
       d="m 324.94428,70.443141 356.68546,0 0,571.652679 c 2.07141,62.04248 -12.10853,151.31071 -115.00618,183.93875 L 414.949,881.93749 c -40.18009,13.86298 -80.20701,27.9153 -90.00472,79.34611 l 0,-890.840459 z"
       style="opacity:0;fill:#286eb3;fill-opacity:1;stroke:#000000;stroke-width:0.99999994px;stroke-linecap:butt;stroke-linejoin:miter;stroke-opacity:0" />
    <path
       style="fill:#000000;fill-opacity:0.14622641"
       d="m 513.56716,802.23985 c -30.26839,-4.4275 -58.94955,-22.40162 -79.31469,-49.70552 -14.50454,-19.44649 -26.39076,-47.05028 -31.15454,-72.35129 -1.83628,-9.75266 -3.47228,-40.45262 -3.51714,-66 -0.0279,-15.90439 -1.16979,-35.81654 -2.49488,-43.50669 -0.28495,-1.65367 -2.56214,-5.47867 -5.06043,-8.5 -2.49829,-3.02132 -6.11049,-8.64331 -8.02712,-12.49331 -7.91855,-15.90629 -2.58114,-28.78571 11.9292,-28.78571 6.39904,0 10.35459,1.96707 15.10069,7.50949 l 3.66182,4.27622 26.18855,-0.5 c 64.42661,-1.23005 84.715,0.50782 106.56189,9.12792 38.23761,15.08737 69.35941,50.54847 82.47014,93.96893 11.84414,39.2257 9.55658,79.1802 -6.66683,116.44262 -3.2155,7.38547 -3.42861,8.50877 -2.95007,15.54982 0.33242,4.8912 0.0945,8.37647 -0.66922,9.80351 -1.79647,3.35675 -7.04672,6.09926 -11.68442,6.10346 -2.92316,0.003 -7.4446,1.58394 -15.5,5.42086 -12.11983,5.77287 -23.01965,9.63257 -34.37295,12.17169 -7.99248,1.78749 -35.99951,2.71141 -44.5,1.468 z m -382.5,-4.51224 c -14.34924,-2.25561 -23.12046,-5.16218 -48,-15.90608 -3.3,-1.42506 -7.25195,-2.6017 -8.78212,-2.61475 -9.71099,-0.0829 -15.08429,-7.96433 -12.69585,-18.62206 0.89744,-4.00456 0.68104,-5.19844 -2.11733,-11.68106 C 48.51453,723.52025 43.66191,698.18087 44.931,672.97423 48.23065,607.4364 86.24437,553.23072 141.91584,534.67864 c 18.68415,-6.22635 28.03826,-7.00625 80.35853,-6.69995 l 46.20721,0.27052 1.54836,-2.9942 c 2.42624,-4.69183 9.89446,-8.5425 16.52323,-8.51951 12.16866,0.0422 17.84085,9.31494 14.11798,23.07965 -1.02482,3.7891 -7.86214,14.92608 -13.27384,21.62112 -3.1561,3.90455 -3.60786,8.96671 -4.75181,53.24677 -1.34246,51.96387 -2.22149,60.49104 -8.22931,79.82942 -10.93659,35.20348 -30.04645,63.98549 -54.34903,81.85691 -14.97001,11.00853 -35.74409,19.56608 -53,21.83252 -9.59824,1.26066 -26.36857,1.03972 -36,-0.47428 z M 403.60304,403.93304 c -11.79312,-6.04721 -10.25016,-22.02391 3.79372,-39.28215 4.82301,-5.9269 4.92887,-6.20605 6.06732,-16 0.63726,-5.48232 1.60104,-27.96785 2.14171,-49.96785 0.54068,-22 1.23398,-41.575 1.54068,-43.5 9.50057,-59.6307 41.15454,-105.16859 85.92069,-123.60684 31.86673,-13.12525 71.28491,-10.54595 106,6.93606 5.10909,2.57286 10.12741,4.29183 13.88718,4.7569 7.18244,0.88843 10.65365,3.29539 12.56839,8.715 1.13626,3.21616 1.2301,5.22054 0.42779,9.1372 -0.70007,3.41751 -0.70185,5.34319 -0.006,6.03947 0.56265,0.56222 0.719,1.02221 0.34789,1.02221 -0.37112,0 0.9164,3.4875 2.86115,7.75 3.94038,8.63653 8.24357,22.40006 11.02098,35.25 2.61619,12.10409 2.639,48.5123 0.0385,61.5 -6.69167,33.42063 -20.67366,60.47087 -42.6459,82.50487 -16.61008,16.65676 -36.02336,28.3921 -56.23175,33.99214 -17.40996,4.82454 -27.16163,5.49743 -75.55633,5.21354 l -45.28809,-0.26566 -4.81048,4.93874 c -7.12257,7.31247 -14.24533,8.88249 -22.07747,4.86637 z m -137.81082,-2.92087 c -4.23089,-0.94684 -11.39182,-6.6159 -12.41576,-9.82913 -0.41453,-1.30086 -4.05124,-1.43362 -27.39364,-1 -71.58382,1.32978 -90.07354,-0.81618 -115.91566,-13.45343 -39.18648,-19.16288 -66.85961,-56.95037 -77.66172,-106.04657 -1.88882,-8.58479 -2.20996,-13.18423 -2.26924,-32.5 -0.0612,-19.93804 0.1931,-23.69558 2.23315,-33 2.84716,-12.98553 5.32636,-20.83282 10.35041,-32.76164 3.60788,-8.56637 3.85189,-9.73822 3.2503,-15.61001 -0.77463,-7.56088 0.71814,-13.00633 4.18885,-15.28042 1.3273,-0.86968 5.51491,-2.17223 9.3058,-2.89455 3.79089,-0.72232 9.2469,-2.50637 12.12448,-3.96454 8.41342,-4.2634 22.70764,-9.43638 33.47797,-12.11544 12.07793,-3.00431 33.81064,-4.2118 46,-2.5558 49.66598,6.74744 89.41299,44.69074 107.60518,102.72211 6.15671,19.63931 7.53856,33.09262 8.31914,80.9932 0.27814,17.06811 1.02966,35.47558 1.67005,40.90549 1.13996,9.66589 1.26739,10.00017 6.08678,15.96709 15.32205,18.97032 15.45903,36.36635 0.31885,40.49308 -2.2,0.59965 -4.225,1.04459 -4.5,0.98876 -0.275,-0.0558 -2.42372,-0.53202 -4.77494,-1.0582 z"
       id="path8673"
       inkscape:connector-curvature="0" />
    <path
       inkscape:connector-curvature="0"
       sodipodi:nodetypes="ccccccccccc"
       id="path5743-1"
       d="m -13.406672,72.787455 18.6676296,22.721842 0,590.767893 c 4.66995,45.19869 13.6579504,88.43033 59.5031104,114.87153 l 239.179112,88.36272 c 9.75105,9.78063 22.18019,9.421 28.00146,34.08276 l 0,46.70601 C 328.93869,944.82468 316.37911,925.8095 295.7761,912.23328 L 56.596968,818.82126 C 15.707838,798.2613 -7.7174824,758.80685 -13.406672,700.16275 l 0,-627.375295 z"
       style="fill:#ffffff;fill-opacity:0.12735847;stroke:#000000;stroke-width:0.99999994px;stroke-linecap:butt;stroke-linejoin:miter;stroke-opacity:0" />
    <path
       inkscape:connector-curvature="0"
       sodipodi:nodetypes="ccccccccccc"
       id="path5743-5-8"
       d="m 675.92841,73.911328 -18.66764,22.721841 0,590.767891 c -4.66994,45.1987 -13.65794,88.43034 -59.5031,114.87152 l -239.1792,88.36273 c -9.75104,9.78061 -22.18019,9.42101 -28.00146,34.08277 l 0,46.706 c 3.00596,-25.47553 15.56555,-44.4907 36.16854,-58.06693 l 239.17922,-93.41201 c 40.88913,-20.55996 64.31445,-60.01441 70.00364,-118.65851 l 0,-627.375302 z"
       style="fill:#000000;fill-opacity:0.11792453;stroke:#000000;stroke-width:0.99999994px;stroke-linecap:butt;stroke-linejoin:miter;stroke-opacity:0" />
    <path
       inkscape:connector-curvature="0"
       id="path5780-2"
       d="M -11.548072,74.58339 9.9019676,99.576153 656.70285,97.790948 678.1529,74.58339 l -689.700972,0 z"
       style="fill:#ffffff;fill-opacity:0.22169812;stroke:#000000;stroke-width:0.99999994px;stroke-linecap:butt;stroke-linejoin:miter;stroke-opacity:0" />
    <path
       inkscape:connector-curvature="0"
       sodipodi:nodetypes="cccccssscccsssccccssccccccccsccccc"
       id="path3676-8-4-1"
       d="m 111.01378,361.58004 c -65.441,-17.2054 -96.11981,-124.75231 -65.80043,-195.00193 -5.30844,-13.30458 0.98477,-23.81666 14.62232,-23.59896 23.6331,-7.55291 45.28754,-17.91499 75.92361,-15.52562 28.49191,2.07636 49.6003,20.45931 70.86189,38.50355 0,0 -50.61847,-41.03555 -75.5862,-31.34535 -2.89752,1.12453 -5.21646,-2.19999 -6.85462,-2.90485 -2.027,-0.87217 -2.96589,-0.97885 -2.48108,-1.14822 7.1555,-2.4993 38.69124,14.8086 34.86863,19.25177 -13.73909,-5.63476 -27.22031,-12.2369 -42.74212,-11.17847 17.38201,2.5729 29.38407,10.56981 38.24296,21.7359 2.26751,-3.08186 -51.436,-19.61767 -51.17811,-14.28359 0.0222,0.4353 0.4298,2.2464 1.75796,1.97882 8.39081,-1.69038 47.94122,19.1282 41.48768,22.08836 -11.79005,5.40789 -0.50352,0.15271 -0.50352,0.15271 -15.34765,-9.60685 -31.98739,-16.93118 -52.86529,-16.76767 26.35804,5.81889 41.76805,22.83158 58.48929,38.50352 -21.42528,-17.52633 -49.01217,-32.67169 -83.79129,-41.59618 0,0 -23.66406,-0.5112 -9.81227,11.30349 2.09847,1.78997 -2.22164,3.9687 -0.31668,3.58863 11.3814,-2.27052 73.22073,57.17997 68.61245,58.99739 -17.5822,-16.5632 -32.97773,-35.8094 -56.80213,-44.71382 14.78266,13.32632 25.19533,28.76388 28.11979,47.81895 -6.6807,-15.74766 -17.39134,-30.60534 -31.49411,-44.71383 3.90189,18.44971 10.99458,38.30883 18.55917,58.37638 -8.35762,-17.74814 -16.79095,-35.48235 -20.80863,-54.02919 l -2.24969,11.17846 -5.62401,0.62101 c 0,0 4.49916,80.73327 4.49916,77.00712 0,-3.72615 -7.87347,-79.49123 -7.87347,-79.49123 l -2.24969,-5.58921 c 0.34518,20.99483 0.69326,41.99144 3.93685,64.5866 -6.51279,-21.28931 -5.83757,-41.58642 -6.74885,-62.10251 -8.51685,67.14979 2.1232,137.45988 65.80043,168.29788 z"
       style="fill:#26639a;fill-opacity:1;stroke:#000000;stroke-width:0.96415883px;stroke-linecap:butt;stroke-linejoin:miter;stroke-opacity:0" />
    <path
       inkscape:connector-curvature="0"
       sodipodi:nodetypes="ccccccc"
       id="path3678-5-8-7"
       d="m 56.85508,163.72141 c 66.61597,26.89321 122.13156,90.4475 153.53414,141.2832 l -15.74717,-29.12609 39.3678,56.51332 C 223.08543,306.3605 206.14794,282.22626 187.94954,258.48984 144.75158,212.81293 100.53186,173.00167 52.131,157.20065 l 4.72408,6.52076 z"
       style="fill:#26639a;fill-opacity:1;stroke:#000000;stroke-width:0.96415883px;stroke-linecap:butt;stroke-linejoin:miter;stroke-opacity:0" />
    <path
       inkscape:connector-curvature="0"
       id="path3684-18-9-4"
       d="m 268.65333,374.99418 -1.9682,7.82492 -6.299,2.1736 -12.59755,-9.56379 -18.89656,-16.95399 10.23563,13.47623 -12.59778,-3.04301 -19.68379,-0.43472 -19.29006,4.34718 -18.10931,1.30415 -19.68378,-1.73888 -27.16376,-3.91245 18.89656,9.12907 c 0,0 22.83316,3.04303 24.40786,3.04303 1.57469,0 25.19533,3.043 26.77002,1.30415 1.57492,-1.73888 20.86498,-3.04303 20.86498,-3.04303 l 22.8334,-0.43473 13.38501,5.65134 7.87347,6.95549 9.44817,0.86943 5.11781,-7.39019 -0.78724,-4.34719 -2.75588,-5.21661 z"
       style="fill:#26639a;fill-opacity:1;stroke:#000000;stroke-width:0.96415883px;stroke-linecap:butt;stroke-linejoin:miter;stroke-opacity:0" />
    <path
       inkscape:connector-curvature="0"
       sodipodi:nodetypes="ccccccc"
       id="path3678-0-7-5-0"
       d="m 72.33212,763.90591 c 66.61597,-26.89325 122.13155,-90.44754 153.53413,-141.28322 l -15.74694,29.12608 39.3678,-56.51332 c -10.92465,26.03134 -27.86191,50.16558 -46.06031,73.90201 -43.1982,45.67689 -87.41769,85.48819 -135.81877,101.28921 l 4.72409,-6.52076 z"
       style="fill:#26639a;fill-opacity:1;stroke:#000000;stroke-width:0.96415883px;stroke-linecap:butt;stroke-linejoin:miter;stroke-opacity:0" />
    <path
       inkscape:connector-curvature="0"
       sodipodi:nodetypes="ccccccc"
       id="path3678-4-2-3-9"
       d="M 621.52345,167.93152 C 554.9075,194.82474 499.3919,258.37903 467.98932,309.21472 l 15.74694,-29.12608 -39.36758,56.51331 c 10.92444,-26.03134 27.86192,-50.16558 46.06009,-73.90201 43.19819,-45.67689 87.41768,-85.48819 135.81876,-101.28919 l -4.72408,6.52077 z"
       style="fill:#26639a;fill-opacity:1;stroke:#000000;stroke-width:0.96415883px;stroke-linecap:butt;stroke-linejoin:miter;stroke-opacity:0" />
    <path
       inkscape:connector-curvature="0"
       sodipodi:nodetypes="ccccccscccccscc"
       id="path3682-5-3-0-4"
       d="m 432.16464,230.0961 c -7.65078,46.34333 -15.84983,93.24583 -10.23563,126.06817 l 18.89656,-44.34124 7.08601,-26.08306 -11.41659,22.60532 7.87369,-29.56081 c 0,0 -10.62935,22.60532 -10.23562,20.86647 0.39351,-1.73888 5.90505,-34.77742 5.90505,-34.77742 l -7.47974,19.12756 7.08601,-36.08155 5.11781,-11.73738 -9.44816,13.04153 c 0,0 -4.33036,25.64833 -4.33036,23.47475 0,-2.17358 3.5429,-30.43024 3.5429,-30.43024 l -2.36193,-12.1721 z"
       style="fill:#26639a;fill-opacity:1;stroke:#000000;stroke-width:0.96415883px;stroke-linecap:butt;stroke-linejoin:miter;stroke-opacity:0" />
    <path
       inkscape:connector-curvature="0"
       sodipodi:nodetypes="ccccccscccccscc"
       id="path3682-4-2-7-1-8"
       d="m 416.68739,705.95142 c -7.65055,-46.34334 -15.84984,-93.24584 -10.23563,-126.06815 l 18.89656,44.34122 7.08623,26.08305 -11.41659,-22.60532 7.87347,29.56081 c 0,0 -10.62936,-22.60532 -10.23562,-20.86647 0.39372,1.73888 5.90527,34.77743 5.90527,34.77743 l -7.47997,-19.12756 7.08624,36.08155 5.11781,11.73737 -9.44839,-13.04153 c 0,0 -4.33035,-25.64832 -4.33035,-23.47475 0,2.17358 3.54311,30.43024 3.54311,30.43024 l -2.36214,12.17211 z"
       style="fill:#26639a;fill-opacity:1;stroke:#000000;stroke-width:0.96415883px;stroke-linecap:butt;stroke-linejoin:miter;stroke-opacity:0" />
    <path
       inkscape:connector-curvature="0"
       id="path3684-8-7-4-9-8"
       d="m 394.24772,556.84325 1.96842,-7.82492 6.29899,-2.17361 12.59756,9.5638 18.89656,16.95398 -10.23563,-13.47622 12.59777,3.04301 19.68379,0.43472 19.29028,-4.34719 18.1091,-1.30414 19.68379,1.73887 27.16375,3.91246 -18.89656,-9.12907 c 0,0 -22.83317,-3.04303 -24.40787,-3.04303 -1.57469,0 -25.19532,-3.04301 -26.77002,-1.30416 -1.57469,1.73889 -20.86498,3.04304 -20.86498,3.04304 l -22.83339,0.43472 -13.38502,-5.65133 -7.87347,-6.9555 -9.44816,-0.86942 -5.11781,7.39019 0.78723,4.34719 2.75567,5.21661 z"
       style="fill:#26639a;fill-opacity:1;stroke:#000000;stroke-width:0.96415883px;stroke-linecap:butt;stroke-linejoin:miter;stroke-opacity:0" />
    <path
       inkscape:connector-curvature="0"
       sodipodi:nodetypes="csccscc"
       id="path3674-72-2"
       d="m 36.44844,156.41387 c -43.7870199,84.85047 -5.37748,194.52847 79.82302,222.11987 40.88972,13.24182 104.48924,2.6053 126.01407,6.41739 11.47673,24.17382 58.69082,9.12316 16.87178,-36.01945 -6.27383,-42.80667 0.76698,-87.56778 -8.09483,-121.8387 C 224.44033,124.13852 136.88147,85.349437 52.1956,133.43593 37.21429,132.00167 31.93348,139.63141 36.44844,156.41387 z"
       style="fill:url(#linearGradient8826);fill-opacity:1;stroke:#000000;stroke-width:0.96415883px;stroke-linecap:butt;stroke-linejoin:miter;stroke-opacity:0" />
    <path
       inkscape:connector-curvature="0"
       sodipodi:nodetypes="cccccssscccsssccccssccccccccsccccc"
       id="path3676-28-4"
       d="M 102.24886,351.4158 C 36.80763,334.2104 6.1290398,226.66349 36.44842,156.41387 c -5.30844,-13.30458 0.98477,-23.81667 14.62232,-23.59896 23.63311,-7.55291 45.28755,-17.91499 75.92361,-15.52562 28.49191,2.07637 49.60007,20.45931 70.8619,38.50355 0,0 -50.61869,-41.03555 -75.58621,-31.34535 -2.89751,1.12453 -5.21648,-2.2 -6.85463,-2.90486 -2.02701,-0.87216 -2.96611,-0.97883 -2.48109,-1.14822 7.15552,-2.49929 38.69103,14.80861 34.86866,19.25177 -13.7391,-5.63476 -27.22032,-12.23689 -42.74213,-11.17846 17.38201,2.5729 29.38407,10.56981 38.24297,21.7359 2.26751,-3.08186 -51.43623,-19.61767 -51.17813,-14.28359 0.0222,0.43529 0.42981,2.24639 1.75798,1.97882 8.39057,-1.69038 47.94122,19.1282 41.48767,22.08836 -11.79005,5.40789 -0.50352,0.15271 -0.50352,0.15271 -15.34786,-9.60685 -31.98739,-16.93119 -52.86528,-16.76768 26.35802,5.8189 41.76804,22.83162 58.48929,38.50356 -21.42529,-17.52636 -49.0124,-32.67172 -83.79152,-41.59621 0,0 -23.66384,-0.51121 -9.81228,11.30348 2.0987,1.78998 -2.2214,3.9687 -0.31645,3.58864 11.38118,-2.27052 73.22073,57.17999 68.61244,58.99741 -17.58219,-16.5632 -32.97772,-35.8094 -56.80212,-44.71382 14.78266,13.32632 25.19532,28.76388 28.11979,47.81895 -6.6807,-15.74766 -17.39134,-30.60533 -31.4941,-44.71383 3.90188,18.44971 10.99457,38.30884 18.55894,58.37636 C 65.20914,213.18867 56.7758,195.45444 52.75789,176.90761 l -2.24946,11.17846 -5.62401,0.621 c 0,0 4.49916,80.73326 4.49916,77.00711 0,-3.72615 -7.87347,-79.4912 -7.87347,-79.4912 l -2.24969,-5.58922 c 0.34496,20.99484 0.69326,41.99142 3.93685,64.58658 -6.51301,-21.28931 -5.83757,-41.5864 -6.74885,-62.10248 -8.51684,67.14976 2.1232,137.45985 65.80044,168.29785 z"
       style="fill:#ffffff;fill-opacity:0.58490571;stroke:#000000;stroke-width:0.96415883px;stroke-linecap:butt;stroke-linejoin:miter;stroke-opacity:0" />
    <path
       inkscape:connector-curvature="0"
       sodipodi:nodetypes="ccccccc"
       id="path3678-2-5"
       d="m 48.09016,153.55716 c 66.61595,26.89325 122.13155,90.44751 153.53412,141.28321 l -15.74716,-29.12609 39.36781,56.51332 C 214.32049,296.19626 197.38301,272.06202 179.18461,248.3256 135.98665,202.64872 91.76693,162.83743 43.36585,147.03641 l 4.72431,6.52075 z"
       style="fill:#ffffff;fill-opacity:0.29302326;stroke:#000000;stroke-width:0.96415883px;stroke-linecap:butt;stroke-linejoin:miter;stroke-opacity:0" />
    <path
       inkscape:connector-curvature="0"
       sodipodi:nodetypes="ccccccccccccccccccccsccsscccscccccccccccscsccccsccccccccccccccccccccccccccccssccccccccccc"
       id="path3680-8-5"
       d="m 47.3027,147.90583 c 87.92945,38.91585 151.54076,109.92468 196.44505,205.62146 l 11.02286,9.9985 -3.14939,9.12907 -10.23563,-6.08604 -46.06008,-43.90652 24.40787,31.73442 -8.2672,-0.43473 -16.53439,-9.12907 -17.32186,-16.95401 -16.92814,-12.1721 20.86498,23.4748 11.41658,16.51925 -16.53439,-10.86794 -18.50282,-22.60532 -14.17246,-17.82344 17.71557,27.82193 9.84189,17.38874 4.33036,6.52076 -20.86476,-15.21513 c 0,0 -15.35341,-12.60682 -17.32185,-14.78041 -1.96842,-2.1736 -16.14088,-16.08455 -16.14088,-16.08455 l 14.17246,19.56229 c 0,0 16.53439,13.91097 16.92813,16.51929 0.39372,2.6083 10.62935,10.86794 8.66093,10.43321 -1.96843,-0.4347 -19.68401,-6.95546 -19.68401,-6.95546 L 128.00651,340.48576 97.69335,322.2276 c 0,0 21.65245,23.04005 23.22715,23.90948 1.57469,0.86944 29.13195,15.21512 29.13195,15.21512 l -13.38501,-1.30415 -32.28158,-6.52076 -20.07751,-9.5638 -18.50283,-15.21513 -11.41659,-13.04155 18.89655,26.51781 26.3763,16.08455 31.10062,13.04153 36.21817,2.17358 27.16376,-1.73885 c 0,0 20.86497,-0.86946 22.43967,-1.30416 1.57468,-0.43472 15.74716,1.73886 15.74716,1.73886 0,0 9.05443,7.39021 9.84189,9.1291 0.78724,1.73885 7.47975,6.95545 7.47975,6.95545 l 11.02308,-1.30414 1.96842,-2.60831 3.54312,-6.08604 c 0,0 0,-9.12907 -1.18119,-10.86795 -1.18097,-1.73888 -7.87348,-12.60679 -7.87348,-12.60679 l -10.23561,-13.91099 1.18096,-41.73292 -3.93663,-33.90796 -6.299,-51.73139 -16.53439,-39.994 -22.43968,-29.99554 -26.37629,-18.25814 -29.13217,-8.25962 19.68401,8.25962 22.43945,16.08456 20.47124,23.90948 16.5344,29.12608 3.93685,16.95398 -9.84189,-15.21513 -7.08625,-4.78188 9.8419,13.47625 4.72408,13.47623 -11.81009,-11.30266 -10.23562,-4.34718 11.02286,8.69437 6.29877,11.30262 1.96843,12.17211 -9.44817,-13.47625 -8.26719,-8.69432 7.87346,12.60677 9.05466,15.64983 0.78724,10.43323 c 0,0 -5.11782,-8.25962 -5.90505,-9.9985 -0.78746,-1.73887 -5.11782,-8.69434 -6.299,-11.30265 -1.18096,-2.6083 -4.72408,-10.86792 -4.72408,-10.86792 l 5.1178,23.47473 3.54313,6.95548 -7.47997,-6.08606 -9.44816,-12.60681 5.90527,16.08457 7.47973,9.12907 c 8.91592,14.20076 12.67194,28.40155 15.35344,42.60232 L 207.13583,260.49767 171.70488,219.63425 C 133.30247,185.85337 97.6722,143.14366 47.3027,147.90583 z"
       style="fill:#000000;fill-opacity:0.05188676;stroke:#000000;stroke-width:0.96415883px;stroke-linecap:butt;stroke-linejoin:miter;stroke-opacity:0" />
    <path
       inkscape:connector-curvature="0"
       sodipodi:nodetypes="ccccccscccccscc"
       id="path3682-9-1"
       d="m 237.44897,215.72178 c 7.65055,46.34329 15.84983,93.24579 10.23541,126.06813 l -18.89634,-44.34124 -7.08623,-26.08305 11.41659,22.60532 -7.87347,-29.56082 c 0,0 10.62912,22.60533 10.23561,20.86647 -0.39372,-1.73887 -5.90526,-34.77742 -5.90526,-34.77742 l 7.47996,19.12756 -7.08624,-36.08154 -5.11781,-11.73738 9.44817,13.04153 c 0,0 4.33057,25.64833 4.33057,23.47474 0,-2.17357 -3.54311,-30.43023 -3.54311,-30.43023 l 2.36215,-12.17207 z"
       style="fill:#000000;fill-opacity:0.04716982;stroke:#000000;stroke-width:0.96415883px;stroke-linecap:butt;stroke-linejoin:miter;stroke-opacity:0" />
    <path
       inkscape:connector-curvature="0"
       id="path3684-0-7"
       d="m 259.88842,364.82993 -1.96843,7.82493 -6.29877,2.1736 -12.59755,-9.5638 -18.89656,-16.95398 10.23563,13.47622 -12.59778,-3.043 -19.68379,-0.43473 -19.29028,4.34719 -18.1091,1.30416 -19.68378,-1.73889 -27.16376,-3.91246 18.89657,9.12907 c 0,0 22.83316,3.04303 24.40786,3.04303 1.57469,0 25.19532,3.04301 26.77002,1.30416 1.5747,-1.73888 20.86498,-3.04303 20.86498,-3.04303 l 22.83317,-0.43473 13.38502,5.65133 7.87369,6.9555 9.44817,0.86943 5.11781,-7.3902 -0.78724,-4.34718 -2.75588,-5.21662 z"
       style="fill:#000000;fill-opacity:0.07547171;stroke:#000000;stroke-width:0.96415883px;stroke-linecap:butt;stroke-linejoin:miter;stroke-opacity:0" />
    <path
       inkscape:connector-curvature="0"
       sodipodi:nodetypes="csccscc"
       id="path3674-7-78-1"
       d="M 51.92568,750.88495 C 8.1384698,666.03447 46.54821,556.35648 131.74852,528.76506 c 40.88969,-13.2418 104.48921,-2.60527 126.01404,-6.41738 11.47672,-24.1738 58.69081,-9.12316 16.87201,36.01946 -6.27384,42.80664 0.76674,87.56777 -8.09505,121.83867 -26.62192,102.9545 -114.1808,141.74358 -198.86689,93.65707 -14.98131,1.43426 -20.2619,-6.19546 -15.74695,-22.97793 z"
       style="fill:url(#linearGradient8834);fill-opacity:1;stroke:#000000;stroke-width:0.96415883px;stroke-linecap:butt;stroke-linejoin:miter;stroke-opacity:0" />
    <path
       inkscape:connector-curvature="0"
       sodipodi:nodetypes="cccccssscccsssccccssccccccccsccccc"
       id="path3676-4-15-1"
       d="m 117.72589,555.88303 c -65.441,17.20539 -96.11959,124.75228 -65.80022,195.00194 -5.30866,13.30457 0.98455,23.81666 14.62232,23.59896 23.63311,7.55291 45.28755,17.91499 75.9234,15.52561 28.49191,-2.07637 49.60029,-20.4593 70.86188,-38.50355 0,0 -50.61847,41.03556 -75.5862,31.34536 -2.89729,-1.12454 -5.21624,2.19999 -6.85462,2.90485 -2.027,0.87216 -2.96589,0.97883 -2.48085,1.14822 7.1555,2.49929 38.69101,-14.80861 34.8684,-19.25178 -13.73886,5.63476 -27.2203,12.2369 -42.7421,11.17846 17.38199,-2.57288 29.38405,-10.56979 38.24295,-21.73588 2.26772,3.08185 -51.43601,19.61766 -51.1779,14.28358 0.0222,-0.43529 0.42959,-2.24639 1.75775,-1.97882 8.39081,1.69039 47.94122,-19.1282 41.48766,-22.08837 -11.78981,-5.40787 -0.50329,-0.15271 -0.50329,-0.15271 -15.34787,9.60686 -31.9876,16.93119 -52.86528,16.76769 26.35782,-5.81891 41.76783,-22.83162 58.48905,-38.50355 -21.42505,17.52634 -49.01216,32.67171 -83.79128,41.59621 0,0 -23.66383,0.5112 -9.81227,-11.30349 2.09848,-1.78998 -2.22163,-3.9687 -0.31645,-3.58864 11.38117,2.27052 73.22073,-57.18 68.61222,-58.99742 -17.58221,16.56321 -32.97773,35.8094 -56.80191,44.71384 14.78267,-13.32632 25.19511,-28.76388 28.11979,-47.81896 -6.68092,15.74766 -17.39134,30.60533 -31.49432,44.71383 3.90188,-18.4497 10.99458,-38.30884 18.55917,-58.37638 -8.35762,17.74813 -16.79095,35.48235 -20.80864,54.0292 l -2.24969,-11.17846 -5.62378,-0.62101 c 0,0 4.49916,-80.73329 4.49916,-77.00714 0,3.72616 -7.8737,79.49123 -7.8737,79.49123 l -2.24946,5.58922 c 0.34495,-20.99483 0.69325,-41.99145 3.93662,-64.58661 -6.51279,21.28931 -5.83757,41.58642 -6.74863,62.10252 -8.51684,-67.14979 2.1232,-137.45989 65.80022,-168.29785 z"
       style="fill:#ffffff;fill-opacity:0.94418604;stroke:#000000;stroke-width:0.96415883px;stroke-linecap:butt;stroke-linejoin:miter;stroke-opacity:0" />
    <path
       inkscape:connector-curvature="0"
       sodipodi:nodetypes="ccccccc"
       id="path3678-0-8-5"
       d="m 63.56719,753.74167 c 66.61596,-26.89325 122.13155,-90.44754 153.53413,-141.28323 l -15.74694,29.12609 39.36757,-56.51332 c -10.92442,26.03134 -27.86191,50.16558 -46.06008,73.90201 -43.1982,45.67689 -87.41769,85.48819 -135.81876,101.28921 l 4.72408,-6.52076 z"
       style="fill:#ffffff;fill-opacity:0.29302326;stroke:#000000;stroke-width:0.96415883px;stroke-linecap:butt;stroke-linejoin:miter;stroke-opacity:0" />
    <path
       inkscape:connector-curvature="0"
       sodipodi:nodetypes="ccccccccccccccccccccsccsscccscccccccccccscsccccsccccccccccccccccccccccccccccssccccccccccc"
       id="path3680-9-6-2"
       d="M 62.77995,759.393 C 150.7094,720.47715 214.32072,649.46829 259.22478,553.77154 l 11.02308,-9.99849 -3.14938,-9.12907 -10.23563,6.08604 -46.0603,43.90649 24.40809,-31.73439 -8.26743,0.43472 -16.5344,9.12907 -17.32164,16.95399 -16.92812,12.1721 20.86475,-23.47478 11.41659,-16.51926 -16.5344,10.86795 -18.50282,22.6053 -14.17225,17.82344 17.71537,-27.82194 9.84189,-17.38871 4.33057,-6.52077 -20.86497,15.21514 c 0,0 -15.35344,12.6068 -17.32186,14.78038 -1.96842,2.1736 -16.14066,16.08456 -16.14066,16.08456 l 14.17224,-19.5623 c 0,0 16.53462,-13.91095 16.92812,-16.51925 0.39374,-2.60831 10.62936,-10.86796 8.66093,-10.43323 -1.96842,0.4347 -19.68378,6.95547 -19.68378,6.95547 l -13.38501,9.12907 -30.31315,18.25814 c 0,0 21.65222,-23.04002 23.22692,-23.90945 1.5747,-0.86946 29.13217,-15.21513 29.13217,-15.21513 l -13.38502,1.30415 -32.28155,6.52076 -20.07753,9.5638 -18.50282,15.2151 -11.41682,13.04156 18.89656,-26.51779 26.37651,-16.08455 31.10039,-13.04153 36.2184,-2.17358 27.16375,1.73885 c 0,0 20.86477,0.86945 22.43945,1.30416 1.57492,0.43472 15.74718,-1.73885 15.74718,-1.73885 0,0 9.05465,-7.39022 9.84189,-9.1291 0.78746,-1.73886 7.47996,-6.95547 7.47996,-6.95547 l 11.02286,1.30416 1.96843,2.6083 3.54311,6.08604 c 0,0 0,9.12907 -1.18097,10.86795 -1.18096,1.73887 -7.87369,12.6068 -7.87369,12.6068 l -10.2354,13.91098 1.18097,41.73289 -3.93685,33.90797 -6.29878,51.73141 -16.5344,39.99401 -22.43967,29.99553 -26.3763,18.25814 -29.13217,8.25963 19.68379,-8.25963 22.43966,-16.08455 20.47126,-23.90948 16.53439,-29.12608 3.93686,-16.954 -9.84213,15.21514 -7.08601,4.78189 9.8419,-13.47626 4.72408,-13.47622 -11.81032,11.30264 -10.23562,4.34718 11.02308,-8.69437 6.29878,-11.30264 1.96842,-12.17211 -9.44839,13.47626 -8.2672,8.69435 7.87347,-12.60681 9.05466,-15.64983 0.78746,-10.43322 c 0,0 -5.11781,8.25961 -5.90527,9.99849 -0.78723,1.73888 -5.11781,8.69435 -6.29877,11.30266 -1.18097,2.6083 -4.72409,10.86794 -4.72409,10.86794 l 5.11781,-23.47475 3.54312,-6.95549 -7.47996,6.08606 -9.44816,12.60681 5.90504,-16.08457 7.47996,-9.12907 c 8.91592,-14.20076 12.67171,-28.40154 15.35344,-42.60231 l -17.71559,38.25516 -35.43095,40.86343 c -38.4024,33.78089 -74.03246,76.4906 -124.40196,71.72843 z"
       style="fill:#000000;fill-opacity:0.08962265;stroke:#000000;stroke-width:0.96415883px;stroke-linecap:butt;stroke-linejoin:miter;stroke-opacity:0" />
    <path
       inkscape:connector-curvature="0"
       sodipodi:nodetypes="ccccccscccccscc"
       id="path3682-4-1-7"
       d="m 252.926,691.57706 c 7.65077,-46.34332 15.84983,-93.24583 10.23562,-126.06815 l -18.89655,44.34122 -7.08623,26.08306 11.41681,-22.60532 -7.8737,29.56081 c 0,0 10.62936,-22.60532 10.23563,-20.86647 -0.39373,1.73888 -5.90505,34.77743 -5.90505,34.77743 l 7.47974,-19.12757 -7.08601,36.08155 -5.11781,11.73738 9.44817,-13.04154 c 0,0 4.33035,-25.64832 4.33035,-23.47474 0,2.17357 -3.54312,30.43024 -3.54312,30.43024 l 2.36215,12.1721 z"
       style="fill:#000000;fill-opacity:0.06132076;stroke:#000000;stroke-width:0.96415883px;stroke-linecap:butt;stroke-linejoin:miter;stroke-opacity:0" />
    <path
       inkscape:connector-curvature="0"
       id="path3684-8-2-6"
       d="m 275.36567,542.46889 -1.96842,-7.82491 -6.29877,-2.17361 -12.59779,9.56379 -18.89655,16.954 10.23562,-13.47624 -12.59754,3.04301 -19.68402,0.43473 -19.29005,-4.34719 -18.1091,-1.30415 -19.68401,1.73888 -27.16374,3.91246 18.89655,-9.12907 c 0,0 22.83339,-3.04303 24.40808,-3.04303 1.5747,0 25.19533,-3.04301 26.77003,-1.30416 1.57468,1.73888 20.86475,3.04303 20.86475,3.04303 l 22.8334,0.43473 13.38501,-5.65134 7.87347,-6.95548 9.44839,-0.86943 5.11781,7.39018 -0.78745,4.34719 -2.75567,5.21661 z"
       style="fill:#000000;fill-opacity:0.08962265;stroke:#000000;stroke-width:0.96415883px;stroke-linecap:butt;stroke-linejoin:miter;stroke-opacity:0" />
    <path
       inkscape:connector-curvature="0"
       sodipodi:nodetypes="csccscc"
       id="path3674-8-4-1"
       d="m 624.40004,160.62398 c 43.78723,84.85046 5.3777,194.52846 -79.8228,222.11989 -40.88994,13.2418 -104.48922,2.60528 -126.01428,6.41736 -11.47673,24.17384 -58.69091,9.12319 -16.87179,-36.01944 6.27383,-42.80667 -0.76697,-87.56779 8.09484,-121.8387 26.62214,-102.95447 114.18101,-141.743543 198.86709,-93.65704 14.98131,-1.43427 20.26191,6.19547 15.74694,22.97793 z"
       style="fill:url(#linearGradient8818);fill-opacity:1;stroke:#000000;stroke-width:0.96415883px;stroke-linecap:butt;stroke-linejoin:miter;stroke-opacity:0" />
    <path
       inkscape:connector-curvature="0"
       sodipodi:nodetypes="cccccssscccsssccccssccccccccsccccc"
       id="path3676-2-2-4"
       d="m 558.59959,355.62591 c 65.44123,-17.20538 96.11982,-124.7523 65.80045,-195.00192 5.30866,-13.30459 -0.98455,-23.81668 -14.62233,-23.59897 -23.6331,-7.55291 -45.28754,-17.91499 -75.92337,-15.52562 -28.49193,2.07637 -49.60031,20.4593 -70.86212,38.50355 0,0 50.61869,-41.03555 75.5862,-31.34536 2.89752,1.12454 5.21647,-2.19999 6.85463,-2.90485 2.027,-0.87215 2.96611,-0.97883 2.48107,-1.14822 -7.15549,-2.49929 -38.69102,14.80861 -34.86864,19.25178 13.7391,-5.63476 27.22055,-12.2369 42.74212,-11.17846 -17.38177,2.57289 -29.38405,10.56979 -38.24296,21.73589 -2.2675,-3.08186 51.43623,-19.61767 51.17812,-14.28358 -0.0222,0.43528 -0.42981,2.24639 -1.75776,1.97881 -8.39079,-1.69039 -47.94142,19.12821 -41.48765,22.08837 11.78983,5.40787 0.50329,0.15271 0.50329,0.15271 15.34788,-9.60686 31.98761,-16.93119 52.86528,-16.76769 -26.35803,5.81891 -41.76804,22.83162 -58.48927,38.50356 21.42528,-17.52635 49.01238,-32.67172 83.79149,-41.59622 0,0 23.66384,-0.5112 9.81228,11.30349 -2.09848,1.78999 2.22163,3.9687 0.31645,3.58864 -11.38117,-2.27051 -73.22071,57.18 -68.61221,58.99742 17.58219,-16.56321 32.9775,-35.8094 56.8019,-44.71383 -14.78266,13.32632 -25.19533,28.76388 -28.1198,47.81892 6.68071,-15.74763 17.39134,-30.6053 31.49433,-44.71379 -3.90188,18.44969 -10.99457,38.30883 -18.55916,58.37635 8.35739,-17.74811 16.79094,-35.48233 20.80863,-54.02918 l 2.24969,11.17847 5.624,0.621 c 0,0 -4.49916,80.73327 -4.49916,77.00711 0,-3.72615 7.87348,-79.4912 7.87348,-79.4912 l 2.24946,-5.58922 c -0.34496,20.99483 -0.69325,41.99142 -3.93663,64.58658 6.51279,-21.28931 5.83758,-41.58639 6.74864,-62.10249 8.51684,67.14977 -2.12298,137.45987 -65.80045,168.29785 z"
       style="fill:#000000;fill-opacity:0.11792453;stroke:#000000;stroke-width:0.96415883px;stroke-linecap:butt;stroke-linejoin:miter;stroke-opacity:0" />
    <path
       inkscape:connector-curvature="0"
       sodipodi:nodetypes="ccccccc"
       id="path3678-4-5-2"
       d="m 612.75852,157.76728 c -66.61595,26.89324 -122.13155,90.4475 -153.53435,141.2832 l 15.74716,-29.12609 -39.36779,56.51332 c 10.92464,-26.03134 27.8619,-50.16558 46.0603,-73.90201 43.1982,-45.67687 87.41768,-85.48817 135.81877,-101.28919 l -4.72409,6.52077 z"
       style="fill:#ffffff;fill-opacity:0.29302326;stroke:#000000;stroke-width:0.96415883px;stroke-linecap:butt;stroke-linejoin:miter;stroke-opacity:0" />
    <path
       inkscape:connector-curvature="0"
       sodipodi:nodetypes="ccccccccccccccccccccsccsscccscccccccccccscsccccsccccccccccccccccccccccccccccssccccccccccc"
       id="path3680-5-8-3"
       d="M 613.54576,152.11594 C 525.61631,191.03179 462.00499,262.04063 417.10071,357.7374 l -11.02285,9.99849 3.14938,9.12907 10.23562,-6.08604 46.06031,-43.90651 -24.4081,31.73441 8.26721,-0.43471 16.5344,-9.12907 17.32186,-16.95402 16.92812,-12.1721 -20.86475,23.4748 -11.41681,16.51926 16.5344,-10.86794 18.50304,-22.60533 14.17226,-17.82344 -17.71538,27.82194 -9.84211,17.38873 -4.33035,6.52077 20.86497,-15.21514 c 0,0 15.35344,-12.60683 17.32164,-14.7804 1.96842,-2.1736 16.1409,-16.08457 16.1409,-16.08457 l -14.17248,19.5623 c 0,0 -16.5344,13.91098 -16.92812,16.51928 -0.39352,2.60831 -10.62914,10.86796 -8.66093,10.43323 1.96842,-0.4347 19.684,-6.95547 19.684,-6.95547 l 13.38502,-9.12907 30.31314,-18.25816 c 0,0 -21.65221,23.04005 -23.22691,23.90947 -1.57469,0.86946 -29.13218,15.21514 -29.13218,15.21514 l 13.38502,-1.30415 32.28156,-6.52077 20.07752,-9.56379 18.50283,-15.21514 11.41681,-13.04155 -18.89678,26.51781 -26.37629,16.08455 -31.1006,13.04154 -36.21819,2.17357 -27.16375,-1.73885 c 0,0 -20.86499,-0.86945 -22.43967,-1.30415 -1.5747,-0.43473 -15.74695,1.73885 -15.74695,1.73885 0,0 -9.05466,7.39022 -9.84212,9.12909 -0.78723,1.73886 -7.47974,6.95547 -7.47974,6.95547 l -11.02308,-1.30416 -1.96843,-2.6083 -3.54289,-6.08604 c 0,0 0,-9.12907 1.18097,-10.86795 1.18096,-1.73887 7.87347,-12.6068 7.87347,-12.6068 l 10.23562,-13.91098 -1.18097,-41.73291 3.93686,-33.90797 6.29877,-51.73139 16.5344,-39.99401 22.43967,-29.99553 26.3763,-18.25814 29.13217,-8.25961 -19.68379,8.25961 -22.43967,16.08455 -20.47124,23.90948 -16.5344,29.12608 -3.93685,16.954 9.8419,-15.21514 7.08623,-4.78189 -9.8419,13.47626 -4.72408,13.4762 11.81032,-11.30262 10.23562,-4.34718 -11.02308,8.69437 -6.29878,11.30262 -1.96842,12.1721 9.44816,-13.47626 8.26743,-8.69432 -7.87369,12.60678 -9.05444,15.64984 -0.78746,10.43322 c 0,0 5.11781,-8.25962 5.90527,-9.99849 0.78724,-1.73889 5.11781,-8.69435 6.29877,-11.30266 1.18098,-2.6083 4.72409,-10.86794 4.72409,-10.86794 l -5.11781,23.47474 -3.54312,6.9555 7.47996,-6.08607 9.44817,-12.6068 -5.90505,16.08456 -7.47996,9.12907 c -8.91592,14.20076 -12.67171,28.40155 -15.35344,42.60231 l 17.71559,-38.25515 35.43095,-40.86344 c 38.40241,-33.78085 74.03246,-76.49056 124.40196,-71.7284 z"
       style="fill:#ffffff;fill-opacity:0.59069764;stroke:#000000;stroke-width:0.96415883px;stroke-linecap:butt;stroke-linejoin:miter;stroke-opacity:0" />
    <path
       inkscape:connector-curvature="0"
       sodipodi:nodetypes="ccccccscccccscc"
       id="path3682-5-6-2"
       d="m 423.39971,219.93188 c -7.65077,46.3433 -15.85005,93.24581 -10.23562,126.06815 l 18.89633,-44.34125 7.08623,-26.08305 -11.41658,22.60532 7.87347,-29.56081 c 0,0 -10.62914,22.60532 -10.23563,20.86647 0.39373,-1.73889 5.90527,-34.77742 5.90527,-34.77742 l -7.47996,19.12756 7.08623,-36.08156 5.11781,-11.73737 -9.44816,13.04153 c 0,0 -4.33058,25.64833 -4.33058,23.47475 0,-2.17358 3.54312,-30.43024 3.54312,-30.43024 l -2.36193,-12.17208 z"
       style="fill:#ffffff;fill-opacity:0.495283;stroke:#000000;stroke-width:0.96415883px;stroke-linecap:butt;stroke-linejoin:miter;stroke-opacity:0" />
    <path
       inkscape:connector-curvature="0"
       id="path3684-1-2-2"
       d="m 400.96004,369.04005 1.96842,7.82491 6.29878,2.17361 12.59778,-9.56379 18.89633,-16.95399 -10.23563,13.47623 12.59778,-3.04301 19.68379,-0.43473 19.29028,4.34719 18.10909,1.30415 19.68402,-1.73887 27.16352,-3.91247 -18.89633,9.12907 c 0,0 -22.8334,3.04304 -24.40809,3.04304 -1.5747,0 -25.19533,3.043 -26.77003,1.30415 -1.57469,-1.73888 -20.86497,-3.04303 -20.86497,-3.04303 l -22.83318,-0.43473 -13.38501,5.65134 -7.8737,6.95549 -9.44816,0.86942 -5.1178,-7.39018 0.78722,-4.34719 2.75589,-5.21661 z"
       style="fill:#f9f9f9;fill-opacity:0.08018871;stroke:#000000;stroke-width:0.96415883px;stroke-linecap:butt;stroke-linejoin:miter;stroke-opacity:0" />
    <path
       inkscape:connector-curvature="0"
       sodipodi:nodetypes="csccscc"
       id="path3674-7-7-6-1"
       d="m 608.923,755.09507 c 43.78702,-84.8505 5.37748,-194.52849 -79.823,-222.11989 -40.88973,-13.2418 -104.48925,-2.60529 -126.01408,-6.4174 -11.47672,-24.17379 -58.6909,-9.12315 -16.87201,36.01948 6.27384,42.80664 -0.76675,87.56775 8.09506,121.83868 26.62193,102.95448 114.18102,141.74356 198.86687,93.65705 14.98153,1.43428 20.26213,-6.19546 15.74716,-22.97792 z"
       style="fill:url(#linearGradient8842);fill-opacity:1;stroke:#000000;stroke-width:0.96415883px;stroke-linecap:butt;stroke-linejoin:miter;stroke-opacity:0" />
    <path
       inkscape:connector-curvature="0"
       sodipodi:nodetypes="cccccssscccsssccccssccccccccsccccc"
       id="path3676-4-1-5-6"
       d="m 543.12257,560.09314 c 65.44123,17.20538 96.11981,124.75229 65.80043,195.00193 5.30845,13.30459 -0.98476,23.81667 -14.62254,23.59896 -23.63288,7.55291 -45.28732,17.91499 -75.92337,15.52563 -28.49192,-2.07637 -49.60032,-20.45932 -70.86191,-38.50355 0,0 50.61848,41.03554 75.58621,31.34535 2.89729,-1.12454 5.21646,2.19999 6.85463,2.90486 2.02699,0.87215 2.96589,0.97883 2.48108,1.14822 -7.1555,2.49928 -38.69126,-14.80862 -34.86865,-19.25178 13.73888,5.63476 27.22032,12.23689 42.74212,11.17846 -17.382,-2.5729 -29.38406,-10.56981 -38.24296,-21.7359 -2.26773,3.08187 51.436,19.61767 51.17812,14.28359 -0.0222,-0.43529 -0.42981,-2.24639 -1.75797,-1.97881 -8.39081,1.69038 -47.94121,-19.12821 -41.48767,-22.08837 11.79006,-5.40789 0.50352,-0.15271 0.50352,-0.15271 15.34765,9.60685 31.98738,16.93119 52.86528,16.76768 -26.35803,-5.8189 -41.76803,-22.83161 -58.48928,-38.50356 21.42506,17.52636 49.01216,32.67172 83.79128,41.59621 0,0 23.66406,0.51121 9.81228,-11.30348 -2.09849,-1.78998 2.22162,-3.9687 0.31668,-3.58864 -11.38141,2.27052 -73.22073,-57.17999 -68.61245,-58.99741 17.58219,16.5632 32.97772,35.8094 56.80212,44.71382 -14.78266,-13.32632 -25.19532,-28.76388 -28.12001,-47.81895 6.68092,15.74767 17.39156,30.60534 31.49432,44.71383 -3.90188,-18.44971 -10.99457,-38.30884 -18.55916,-58.37639 8.35761,17.74815 16.79095,35.48237 20.80864,54.0292 l 2.24968,-11.17846 5.62401,-0.621 c 0,0 -4.49916,-80.73329 -4.49916,-77.00713 0,3.72615 7.87347,79.49123 7.87347,79.49123 l 2.24969,5.58921 c -0.34495,-20.99484 -0.69326,-41.99144 -3.93684,-64.5866 6.51301,21.28931 5.83779,41.58642 6.74884,62.10251 8.51685,-67.14979 -2.12319,-137.45989 -65.80043,-168.29786 z"
       style="fill:#000000;fill-opacity:0.10849053;stroke:#000000;stroke-width:0.96415883px;stroke-linecap:butt;stroke-linejoin:miter;stroke-opacity:0" />
    <path
       inkscape:connector-curvature="0"
       sodipodi:nodetypes="ccccccc"
       id="path3678-0-1-39-8"
       d="M 597.28126,757.95178 C 530.66531,731.05854 475.14971,667.50425 443.74713,616.66855 l 15.74717,29.12609 -39.3678,-56.51332 c 10.92443,26.03133 27.86191,50.16558 46.06031,73.90201 43.19797,45.67689 87.41746,85.48819 135.81876,101.28921 l -4.72431,-6.52076 z"
       style="fill:#ffffff;fill-opacity:0.29302326;stroke:#000000;stroke-width:0.96415883px;stroke-linecap:butt;stroke-linejoin:miter;stroke-opacity:0" />
    <path
       inkscape:connector-curvature="0"
       sodipodi:nodetypes="ccccccccccccccccccccsccsscccscccccccccccscsccccsccccccccccccccccccccccccccccssccccccccccc"
       id="path3680-9-5-2-5"
       d="M 598.06872,763.60312 C 510.13906,724.68726 446.52796,653.6784 401.62368,557.98165 l -11.02308,-9.9985 3.14938,-9.12907 10.23562,6.08604 46.06031,43.9065 -24.40787,-31.7344 8.2672,0.43473 16.5344,9.12907 17.32186,16.95398 16.92813,12.17211 -20.86498,-23.47478 -11.41659,-16.51925 16.5344,10.86794 18.50283,22.6053 14.17247,17.82343 -17.71558,-27.82192 -9.8419,-17.38872 -4.33036,-6.52076 20.86476,15.21513 c 0,0 15.35343,12.6068 17.32185,14.78038 1.96843,2.17361 16.14068,16.08456 16.14068,16.08456 l -14.17225,-19.56229 c 0,0 -16.5344,-13.91095 -16.92813,-16.51927 -0.39373,-2.6083 -10.62935,-10.86794 -8.66093,-10.43321 1.96842,0.4347 19.68379,6.95546 19.68379,6.95546 l 13.38501,9.12907 30.31314,18.25814 c 0,0 -21.65221,-23.04003 -23.22691,-23.90946 -1.57468,-0.86944 -29.13217,-15.21512 -29.13217,-15.21512 l 13.38501,1.30415 32.28156,6.52076 20.07753,9.5638 18.50304,15.21511 11.41659,13.04155 -18.89656,-26.51778 -26.37629,-16.08456 -31.1006,-13.04153 -36.21841,-2.17358 -27.16375,1.73885 c 0,0 -20.86475,0.86946 -22.43945,1.30416 -1.57469,0.43473 -15.74716,-1.73886 -15.74716,-1.73886 0,0 -9.05467,-7.39021 -9.8419,-9.12909 -0.78746,-1.73885 -7.47996,-6.95546 -7.47996,-6.95546 l -11.02286,1.30414 -1.96842,2.60831 -3.54312,6.08604 c 0,0 0,9.12907 1.18096,10.86795 1.18119,1.73888 7.87369,12.6068 7.87369,12.6068 l 10.23563,13.91098 -1.18118,41.73289 3.93684,33.90797 6.29877,51.73141 16.53462,39.99401 22.43945,29.99554 26.37653,18.25814 29.13194,8.25961 -19.68378,-8.25961 -22.43967,-16.08457 -20.47125,-23.90946 -16.5344,-29.1261 -3.93662,-16.95398 9.84189,15.21513 7.08623,4.78188 -9.84211,-13.47625 -4.72409,-13.47623 11.81032,11.30266 10.23563,4.34718 -11.02286,-8.69437 -6.299,-11.30265 -1.96821,-12.1721 9.44817,13.47625 8.2672,8.69435 -7.87347,-12.6068 -9.05466,-15.64984 -0.78724,-10.43322 c 0,0 5.11782,8.25962 5.90505,9.99849 0.78746,1.73889 5.11782,8.69435 6.29879,11.30265 1.18118,2.60831 4.7243,10.86796 4.7243,10.86796 l -5.11782,-23.47475 -3.54311,-6.9555 7.47974,6.08607 9.44839,12.6068 -5.90527,-16.08456 -7.47975,-9.12907 c -8.91592,-14.20076 -12.67193,-28.40155 -15.35343,-42.60232 l 17.71537,38.25516 35.43095,40.86344 c 38.4024,33.78088 74.03245,76.49059 124.40217,71.72843 z"
       style="fill:#ffffff;fill-opacity:0.66511625;stroke:#000000;stroke-width:0.96415883px;stroke-linecap:butt;stroke-linejoin:miter;stroke-opacity:0" />
    <path
       inkscape:connector-curvature="0"
       sodipodi:nodetypes="ccccccscccccscc"
       id="path3682-4-2-4-7"
       d="M 407.92246,695.78717 C 400.2719,649.44384 392.07263,602.54134 397.68683,569.71903 l 18.89656,44.34122 7.08623,26.08305 -11.41681,-22.60532 7.87369,29.56081 c 0,0 -10.62935,-22.60532 -10.23562,-20.86647 0.39373,1.73888 5.90505,34.77742 5.90505,34.77742 l -7.47975,-19.12756 7.08623,36.08156 5.11782,11.73737 -9.44839,-13.04153 c 0,0 -4.33036,-25.64833 -4.33036,-23.47475 0,2.17358 3.54313,30.43024 3.54313,30.43024 l -2.36215,12.1721 z"
       style="fill:#ffffff;fill-opacity:0.26415094;stroke:#000000;stroke-width:0.96415883px;stroke-linecap:butt;stroke-linejoin:miter;stroke-opacity:0" />
    <path
       inkscape:connector-curvature="0"
       id="path3684-8-7-6-6"
       d="m 385.48278,546.67901 1.96842,-7.82493 6.29878,-2.1736 12.59778,9.5638 18.89655,16.95398 -10.23562,-13.47622 12.59756,3.043 19.684,0.43473 19.29007,-4.34719 18.10931,-1.30414 19.68379,1.73887 27.16375,3.91246 -18.89655,-9.12907 c 0,0 -22.83318,-3.04303 -24.40787,-3.04303 -1.57469,0 -25.19556,-3.04301 -26.77024,-1.30416 -1.5747,1.73889 -20.86476,3.04303 -20.86476,3.04303 l -22.8334,0.43473 -13.38501,-5.65133 -7.87347,-6.9555 -9.44839,-0.86942 -5.11781,7.39019 0.78746,4.34719 2.75565,5.21661 z"
       style="fill:#ffffff;fill-opacity:0.46698112;stroke:#000000;stroke-width:0.96415883px;stroke-linecap:butt;stroke-linejoin:miter;stroke-opacity:0" />
  </g>
</svg>
