<svg width="580" height="580" xmlns="http://www.w3.org/2000/svg" xmlns:undefined="http://www.inkscape.org/namespaces/inkscape" stroke="null" style="vector-effect: non-scaling-stroke;" version="1.0" preserveAspectRatio="xMidYMid meet">
 <g stroke="null" id="Layer_1">
  <title stroke="null">Layer 1</title>
  <g stroke="null">

   <metadata stroke="null" id="svg_18">image/svg+xml</metadata>
   <g stroke="null" id="svg_2"  />
  </g>
  <g stroke="null">

   <title stroke="null">middelman_wonen_logo</title>
   <path stroke="null" fill="#273337" d="m17.25256,253.11819l14.00377,0l17.5299,52.74082l17.68102,-52.74082l14.00377,0l12.69407,75.55992l-13.90302,0l-8.1101,-47.70349l-16.06908,47.75387l-12.69407,0l-15.91796,-47.75387l-8.26122,47.75387l-14.05414,0l13.09705,-75.61029z" class="cls-1"/>
   <path stroke="null" fill="#273337" d="m108.47857,249.79355a8.6642,8.6642 0 0 1 6.49815,2.66978a8.8657,8.8657 0 0 1 2.66978,6.49815a8.96644,8.96644 0 0 1 -2.66978,6.39741a8.51308,8.51308 0 0 1 -6.24629,2.61941a8.71458,8.71458 0 0 1 -6.39741,-2.66978a9.01682,9.01682 0 0 1 -2.61941,-6.54853a8.76495,8.76495 0 0 1 2.41792,-6.34703a8.61383,8.61383 0 0 1 6.34703,-2.61941zm-7.05226,23.02059l14.05414,0l0,55.91434l-14.05414,0l0,-55.91434z" class="cls-1"/>
   <path stroke="null" fill="#273337" d="m169.37986,251.25438l14.00377,0l0,77.4741l-14.00377,0l0,-5.89367a28.10829,28.10829 0 0 1 -8.26122,5.64181a23.62507,23.62507 0 0 1 -8.91607,1.71269a24.83403,24.83403 0 0 1 -18.73886,-8.41234a29.26687,29.26687 0 0 1 -7.9086,-20.90491a29.82098,29.82098 0 0 1 7.65674,-21.20715a24.22955,24.22955 0 0 1 18.53737,-8.26122a23.87693,23.87693 0 0 1 9.47018,1.86381a26.34522,26.34522 0 0 1 8.16047,5.69218l0,-27.7053zm-14.75937,33.09524a14.10452,14.10452 0 0 0 -10.77988,4.58397a16.57281,16.57281 0 0 0 -4.3321,11.78735a16.7743,16.7743 0 0 0 4.38248,11.93847a14.15489,14.15489 0 0 0 10.77988,4.68471a14.5075,14.5075 0 0 0 10.98137,-4.63434a16.87505,16.87505 0 0 0 4.3321,-12.03921a16.47206,16.47206 0 0 0 -4.3321,-11.83772a15.11198,15.11198 0 0 0 -11.03175,-4.48322z" class="cls-1"/>
   <path stroke="null" fill="#273337" d="m238.64312,251.25438l14.05414,0l0,77.4741l-14.05414,0l0,-5.89367a28.56165,28.56165 0 0 1 -8.21084,5.64181a23.87693,23.87693 0 0 1 -8.96644,1.71269a24.83403,24.83403 0 0 1 -18.73886,-8.41234a29.26687,29.26687 0 0 1 -7.9086,-20.90491a29.82098,29.82098 0 0 1 7.65674,-21.20715a24.22955,24.22955 0 0 1 18.58774,-8.26122a23.62507,23.62507 0 0 1 9.4198,1.86381a25.18664,25.18664 0 0 1 8.16047,5.69218l0,-27.7053zm-14.75937,33.09524a14.10452,14.10452 0 0 0 -10.77988,4.58397a16.57281,16.57281 0 0 0 -4.3321,11.78735a16.7743,16.7743 0 0 0 4.38248,11.93847a14.25564,14.25564 0 0 0 10.77988,4.68471a14.5075,14.5075 0 0 0 10.98137,-4.63434a16.67355,16.67355 0 0 0 4.3321,-12.03921a16.27057,16.27057 0 0 0 -4.3321,-11.83772a15.11198,15.11198 0 0 0 -11.03175,-4.48322z" class="cls-1"/>
   <path stroke="null" fill="#273337" d="m322.66574,304.85155l-45.08408,0a15.11198,15.11198 0 0 0 5.03733,9.47018a16.27057,16.27057 0 0 0 10.83025,3.52613a18.83961,18.83961 0 0 0 13.50004,-5.49069l11.83772,5.54106a28.36016,28.36016 0 0 1 -10.57839,9.26868a33.09524,33.09524 0 0 1 -14.65862,3.0224a29.06538,29.06538 0 0 1 -21.45902,-8.31159a28.41053,28.41053 0 0 1 -8.26122,-20.80416a29.31725,29.31725 0 0 1 8.46271,-21.05603a27.60456,27.60456 0 0 1 20.65304,-8.41234a28.76314,28.76314 0 0 1 21.50939,8.41234a30.7277,30.7277 0 0 1 8.26122,22.36574l-0.05037,2.46829zm-14.00377,-11.08212a14.30601,14.30601 0 0 0 -5.49069,-7.60636a16.16982,16.16982 0 0 0 -9.52055,-2.92165a16.92542,16.92542 0 0 0 -10.07466,3.27426a18.63811,18.63811 0 0 0 -5.03733,7.25375l30.12322,0z" class="cls-1"/>
   <path stroke="null" fill="#273337" d="m332.28704,251.25438l14.00377,0l0,77.4741l-14.00377,0l0,-77.4741z" class="cls-1"/>
   <path stroke="null" fill="#273337" d="m358.83376,272.81414l14.05414,0l0,6.44778a22.36574,22.36574 0 0 1 17.58027,-7.85823a17.93289,17.93289 0 0 1 9.47018,2.56904a18.83961,18.83961 0 0 1 6.80039,7.45525a22.0635,22.0635 0 0 1 18.78923,-10.07466a19.39371,19.39371 0 0 1 10.47764,2.77053a16.06908,16.06908 0 0 1 6.39741,7.25375a39.29116,39.29116 0 0 1 1.96456,14.55788l0,32.793l-14.00377,0l0,-28.56165a24.02805,24.02805 0 0 0 -2.36754,-12.89556a8.05972,8.05972 0 0 0 -7.05226,-3.32464a10.67913,10.67913 0 0 0 -6.44778,2.01493a12.59332,12.59332 0 0 0 -4.28173,5.69218a35.96652,35.96652 0 0 0 -1.36008,11.63623l0,25.18664l-14.15489,0l0,-26.84896a37.12511,37.12511 0 0 0 -1.10821,-10.83025a9.47018,9.47018 0 0 0 -3.32464,-5.03733a8.51308,8.51308 0 0 0 -5.33957,-1.61194a10.42727,10.42727 0 0 0 -6.34703,2.0653a12.24071,12.24071 0 0 0 -4.28173,5.8433a35.56353,35.56353 0 0 0 -1.41045,11.78735l0,24.8844l-14.05414,0l0,-55.91434z" class="cls-1"/>
   <path stroke="null" fill="#273337" d="m499.02259,272.81414l13.90302,0l0,55.91434l-13.90302,0l0,-5.89367a28.56165,28.56165 0 0 1 -8.21084,5.64181a23.87693,23.87693 0 0 1 -8.96644,1.71269a25.18664,25.18664 0 0 1 -18.73886,-8.41234a29.26687,29.26687 0 0 1 -7.9086,-20.90491a30.22397,30.22397 0 0 1 7.65674,-21.20715a24.22955,24.22955 0 0 1 18.58774,-8.26122a23.62507,23.62507 0 0 1 9.4198,1.86381a25.18664,25.18664 0 0 1 8.16047,5.69218l0,-6.14554zm-14.709,11.53548a14.10452,14.10452 0 0 0 -10.83025,4.58397a16.57281,16.57281 0 0 0 -4.28173,11.78735a16.7743,16.7743 0 0 0 4.38248,11.93847a14.10452,14.10452 0 0 0 10.77988,4.68471a14.40676,14.40676 0 0 0 10.931,-4.63434a16.67355,16.67355 0 0 0 4.38248,-12.03921a16.27057,16.27057 0 0 0 -4.38248,-11.83772a14.65862,14.65862 0 0 0 -10.98137,-4.48322z" class="cls-1"/>
   <path stroke="null" fill="#273337" d="m527.03013,272.81414l14.05414,0l0,5.74255a34.20346,34.20346 0 0 1 8.61383,-5.59143a20.95528,20.95528 0 0 1 7.95898,-1.56157a19.14185,19.14185 0 0 1 14.10452,5.79293a19.84707,19.84707 0 0 1 5.03733,14.60825l0,36.92361l-13.90302,0l0,-24.48141a61.65689,61.65689 0 0 0 -0.90672,-13.29855a8.36196,8.36196 0 0 0 -8.76495,-6.69965a10.07466,10.07466 0 0 0 -7.30413,2.8209a15.56534,15.56534 0 0 0 -4.23136,8.05972a64.07481,64.07481 0 0 0 -0.60448,11.33399l0,22.41611l-14.05414,0l0,-56.06546z" class="cls-1"/>
  </g>
 </g>

</svg>