<?xml version="1.0" encoding="UTF-8"?>
<!-- Generator: Adobe Illustrator 22.0.1, SVG Export Plug-In . SVG Version: 6.00 Build 0)  -->
<!DOCTYPE svg PUBLIC "-//W3C//DTD SVG 1.1//EN" "http://www.w3.org/Graphics/SVG/1.1/DTD/svg11.dtd">
<svg version="1.1" id="Layer_1" xmlns="http://www.w3.org/2000/svg" xmlns:xlink="http://www.w3.org/1999/xlink" x="0px" y="0px" viewBox="0 0 930 176" style="enable-background:new 0 0 930 176;" xml:space="preserve">
<style type="text/css">
	.st0{fill:#023A4F;}
	.st1{fill:#FF6C37;}
</style>
<path class="st0" d="M609.4,34.4c-0.4,0.5-0.4,1.2-0.4,2.6v17c0,0.4,0,0.7,0,0.9c0,0.4-0.1,0.6-0.3,0.8c-0.1,0.1-0.3,0.2-0.5,0.2  c-0.3,0.1-0.7,0.1-1.2,0.1h-71c-14.1,0-21.2,0-25.6,4.4C506,64.8,506,71.9,506,86v30c0,14.1,0,21.2,4.4,25.6  c4.4,4.4,11.5,4.4,25.6,4.4h98V26l-22.2,7.2C610.4,33.6,609.8,33.9,609.4,34.4z M604.8,126.8c-1.4,0.2-3.2,0.2-5.8,0.2h-58  c-4.7,0-7.1,0-8.5-1.5c-1.5-1.5-1.5-3.8-1.5-8.5V85c0-4.7,0-7.1,1.5-8.5c1.5-1.5,3.8-1.5,8.5-1.5h68v42c0,4.7,0,7.1-1.5,8.5  C606.9,126.2,606,126.6,604.8,126.8z M684,146c-14.1,0-21.2,0-25.6-4.4c-4.4-4.4-4.4-11.5-4.4-25.6v-10c0-2.7,0-4.8,0.1-6.5  c0.2-2.5,0.7-4.2,1.9-5.4c1-1,2.3-1.5,4.1-1.8c1-0.2,2.2-0.2,3.7-0.3c1.2,0,2.6,0,4.2,0h87c0.3,0,0.6,0,0.8,0c0.2,0,0.3,0,0.4-0.1  c0.2,0,0.3-0.1,0.5-0.2c0.1-0.1,0.2-0.3,0.3-0.6c0-0.1,0-0.3,0-0.4l0-0.3V90v-5c0-1.1,0-2,0-2.8c0-1.3-0.1-2.4-0.3-3.3  c-0.1-0.6-0.3-1.1-0.5-1.5c-0.2-0.3-0.4-0.6-0.7-0.9c-1.5-1.5-3.8-1.5-8.5-1.5h-93V56h98c14.1,0,21.2,0,25.6,4.4  C782,64.8,782,71.9,782,86v60H684z M757,110h-69.5c-3.3,0-4.9,0-6.1,0.7c-0.3,0.2-0.5,0.4-0.8,0.6c-0.1,0.1-0.2,0.2-0.3,0.3  c-0.1,0.1-0.2,0.2-0.2,0.3c-0.1,0.2-0.3,0.3-0.4,0.5c-0.7,1.2-0.7,2.8-0.7,6.1c0,2.3,0,3.7,0.2,4.8c0.1,0.5,0.3,0.9,0.5,1.3  c0.4,0.7,1,1.2,1.6,1.7c1.2,0.7,2.8,0.7,6.1,0.7H747l1.9,0c0.8,0,1.5,0,2.1-0.1c2.2-0.1,3.6-0.4,4.5-1.4c0.6-0.6,0.9-1.3,1.1-2.2  c0.3-1.5,0.3-3.5,0.3-6.4V110z M827,166.6c0,0.3-0.1,0.5-0.1,0.7c0,0.1-0.1,0.3-0.2,0.4c-0.4,0.5-1.1,0.7-2.4,1.2L802,176V56h98  c14.1,0,21.2,0,25.6,4.4C930,64.8,930,71.9,930,86v30c0,14.1,0,21.2-4.4,25.6c-4.4,4.4-11.5,4.4-25.6,4.4h-71c-0.3,0-0.5,0-0.7,0  c-0.2,0-0.4,0-0.5,0c-0.2,0-0.4,0.1-0.5,0.2c-0.2,0.2-0.2,0.4-0.3,0.7c0,0.3,0,0.6,0,1.1v17l0,0.8C827,166.1,827,166.3,827,166.6z   M831.1,75.3c-1.1,0.2-2,0.6-2.6,1.2c-1.5,1.5-1.5,3.8-1.5,8.5v42h68c4.7,0,7.1,0,8.5-1.5c1.5-1.5,1.5-3.8,1.5-8.5V85  c0-4.7,0-7.1-1.5-8.5c-1.5-1.5-3.8-1.5-8.5-1.5h-58c-1.7,0-3.1,0-4.3,0.1C832.1,75.1,831.6,75.2,831.1,75.3z M456,56  c14.1,0,21.2,0,25.6,4.4C486,64.8,486,71.9,486,86v10c0,6.6,0,9.9-2.1,11.9c-2.1,2.1-5.3,2.1-11.9,2.1h-87c-0.9,0-1.4,0-1.7,0.3  s-0.3,0.8-0.3,1.7v5c0,4.7,0,7.1,1.5,8.5c1.5,1.5,3.8,1.5,8.5,1.5h93v19h-98c-14.1,0-21.2,0-25.6-4.4c-4.4-4.4-4.4-11.5-4.4-25.6V86  c0-14.1,0-21.2,4.4-25.6C366.8,56,373.9,56,388,56H456z M383,92h69.5c3.3,0,4.9,0,6.1-0.7c0.7-0.4,1.2-1,1.6-1.7  c0.2-0.4,0.4-0.8,0.5-1.3c0.2-1.1,0.2-2.6,0.2-4.8c0-1.4,0-2.6-0.1-3.5c-0.1-1.2-0.3-2-0.7-2.6c-0.4-0.7-1-1.2-1.6-1.7  c-1.2-0.7-2.8-0.7-6.1-0.7H393c-4.7,0-7.1,0-8.5,1.5c-1.5,1.5-1.5,3.8-1.5,8.5V92z M331.6,62.4C325.1,56,314.7,56,294,56h-84v90h25  V85c0-4.7,0-7.1,1.5-8.5c1.5-1.5,3.8-1.5,8.5-1.5h48c9.4,0,14.1,0,17.1,2.9c2.9,2.9,2.9,7.6,2.9,17.1v51h25v-46  C338,79.3,338,68.9,331.6,62.4z"/>
<path class="st1" d="M93.1,56c3.8,0,5.8,0,6.8-1.2c1.1-1.2,0.8-3.1,0.3-6.9L94.3,6.4c-0.4-2.9-0.6-4.4-1.6-5.3  c-1-0.9-2.5-0.9-5.5-0.9h-4.4c-3,0-4.4,0-5.5,0.9c-1,0.9-1.2,2.3-1.6,5.3l-5.9,41.4c-0.5,3.8-0.8,5.7,0.3,6.9c1.1,1.2,3,1.2,6.8,1.2  H93.1z M57.3,70.2c1.2-3.6,1.8-5.5,0.9-6.9c-0.8-1.4-2.7-1.7-6.5-2.4l-41.2-7.2C7.6,53.2,6.1,53,5,53.7c-1.1,0.7-1.6,2.1-2.5,4.9  l-1.4,4.2c-0.9,2.8-1.4,4.2-0.9,5.5c0.5,1.2,1.9,1.9,4.5,3.2l37.6,18.4c3.4,1.7,5.2,2.5,6.7,1.9c1.5-0.6,2.1-2.5,3.3-6.1L57.3,70.2z   M59.5,108.5c-3.1-2.3-4.7-3.4-6.2-3c-1.6,0.4-2.5,2.1-4.3,5.5l-19.6,37c-1.4,2.6-2.1,3.9-1.8,5.2c0.3,1.3,1.5,2.2,3.9,3.9l3.6,2.6  c2.4,1.7,3.6,2.6,4.9,2.5c1.3-0.1,2.4-1.2,4.4-3.3l29.1-30c2.7-2.8,4-4.1,3.9-5.8c-0.1-1.6-1.7-2.8-4.8-5L59.5,108.5z M117.8,85.4  c1.2,3.6,1.8,5.5,3.3,6.1c1.5,0.6,3.2-0.2,6.7-1.9l37.6-18.4c2.7-1.3,4-2,4.5-3.2c0.5-1.2,0.1-2.6-0.9-5.5l-1.4-4.2  c-0.9-2.8-1.4-4.2-2.5-4.9c-1.1-0.7-2.6-0.4-5.5,0.1l-41.2,7.2c-3.8,0.7-5.7,1-6.5,2.4c-0.8,1.4-0.2,3.2,0.9,6.9L117.8,85.4z   M97.2,117.9c-3.1,2.3-4.7,3.4-4.8,5c-0.1,1.6,1.2,3,3.9,5.8l29.1,30c2.1,2.1,3.1,3.2,4.4,3.3c1.3,0.1,2.5-0.8,4.9-2.5l3.6-2.6  c2.4-1.7,3.6-2.6,3.9-3.9c0.3-1.3-0.4-2.6-1.8-5.2l-19.6-37c-1.8-3.4-2.7-5.1-4.3-5.5c-1.6-0.4-3.1,0.8-6.2,3L97.2,117.9z"/>
</svg>