<svg xmlns="http://www.w3.org/2000/svg" width="88" height="20" viewBox="0 0 88 20">
    <g fill-rule="evenodd">
        <path d="M13.6 20h73.6v-4H13.6zM82.76 6.063c0-.998-.784-1.82-1.73-1.82H68.57c-.946 0-1.723.822-1.723 1.82v6.192h-4.782V5.724c0-3.103 2.66-5.628 5.944-5.628h13.59c3.29 0 5.937 2.525 5.937 5.628v6.53H82.76v-6.19zM58.4 6.91c0 3.257-2.665 5.89-5.947 5.89H36.34c-3.282 0-5.946-2.633-5.939-5.89V5.884C30.4 2.639 33.057 0 36.346 0h16.107C55.735 0 58.4 2.64 58.4 5.883V6.91zm-4.782-.673c0-1.044-.955-1.901-2.119-1.901H37.293c-1.172 0-2.118.857-2.118 1.9v.334c0 1.042.946 1.88 2.118 1.88h14.206c1.164 0 2.119-.838 2.119-1.88v-.333z"></path>
        <path d="M23.206 6.018c0-1.007-.932-1.835-2.095-1.835H6.897c-1.157 0-2.104.828-2.104 1.835v.322c0 1 .947 1.815 2.104 1.815H21.11c1.163 0 2.095-.809 2.095-1.815v-.322zM28 5.676v.993c0 3.143-2.663 5.683-5.937 5.683H5.957c-.4 0-.792-.042-1.164-.103V20H0L.013 5.676C.013 2.546 2.663 0 5.957 0h16.106C25.337 0 28 2.547 28 5.676z"></path>
    </g>
</svg>