<svg xmlns:dc="http://purl.org/dc/elements/1.1/" xmlns:cc="http://creativecommons.org/ns#" xmlns:rdf="http://www.w3.org/1999/02/22-rdf-syntax-ns#" xmlns:svg="http://www.w3.org/2000/svg" xmlns="http://www.w3.org/2000/svg" xmlns:sodipodi="http://sodipodi.sourceforge.net/DTD/sodipodi-0.dtd" xmlns:inkscape="http://www.inkscape.org/namespaces/inkscape" id="svg2" xml:space="preserve" width="282.69333" height="66.013336" viewBox="0 0 282.69333 66.013336" sodipodi:docname="Websight_CMYK_grijs.eps"><metadata></metadata><defs id="defs6"></defs><g id="g10" inkscape:groupmode="layer" inkscape:label="ink_ext_XXXXXX" transform="matrix(1.3333333,0,0,-1.3333333,0,66.013333)"><g id="g12" transform="scale(0.1)"><path d="M 1598.06,388.785 H 1470.5 c -37.2,-0.07 -67.25,-30.168 -67.33,-67.316 V 172.59 c 0.08,-37.168 30.13,-67.207 67.31,-67.309 h 77.26 v 49.59 h -77.24 c -9.55,-0.019 -17.76,8.184 -17.74,17.734 v 148.864 c -0.02,9.531 8.19,17.734 17.74,17.715 h 127.56 c 13.69,0 24.8,11.093 24.8,24.785 0,13.722 -11.11,24.816 -24.8,24.816 z m -0.01,-117 c -13.69,0 -24.8,-11.094 -24.8,-24.781 V 67.2969 c 0.02,-9.4649 -8.21,-17.7188 -17.77,-17.6992 -13.67,0 -24.78,-11.1016 -24.78,-24.793 C 1530.7,11.1133 1541.81,0 1555.5,0 c 37.18,0.0898438 67.26,30.1172 67.35,67.2969 V 250.547 h -0.28 c -1.71,12.012 -12.03,21.238 -24.52,21.238 z m 470.14,-116.933 h -42.49 c -9.64,0.019 -17.75,8.164 -17.75,17.753 V 406.5 c 0.02,2.742 -0.44,5.301 -1.25,7.82 l -21.3,63.821 c -3.47,10.41 -13.13,16.972 -23.52,16.953 -2.62,0 -5.26,-0.422 -7.87,-1.301 -10.39,-3.426 -16.96,-13.113 -16.94,-23.496 0,-2.606 0.42,-5.262 1.29,-7.871 l 19.98,-59.969 V 172.605 c 0.07,-37.156 30.13,-67.253 67.36,-67.332 h 42.49 c 13.69,0 24.79,11.094 24.79,24.786 0,13.699 -11.1,24.793 -24.79,24.793 z m 27.16,233.933 h -61.89 v -49.601 h 61.89 c 13.7,0 24.82,11.074 24.82,24.777 0,13.719 -11.12,24.824 -24.82,24.824 z m -387.57,89.356 c -3.46,10.398 -13.12,16.961 -23.49,16.961 -2.6,0 -5.25,-0.418 -7.84,-1.297 -10.4,-3.43 -16.99,-13.106 -16.99,-23.496 0,-2.618 0.42,-5.286 1.29,-7.883 h 0.01 l 19.99,-59.981 V 130.059 c 0,-13.672 11.1,-24.817 24.84,-24.817 13.67,0 24.76,11.145 24.76,24.817 V 406.48 c 0.02,2.743 -0.42,5.313 -1.27,7.852 z m 125.33,-89.356 h -77.25 v -49.601 h 77.25 c 9.56,0.019 17.73,-8.184 17.73,-17.735 V 130.09 c 0,-13.695 11.07,-24.828 24.79,-24.828 13.7,0 24.81,11.133 24.81,24.828 l -0.02,191.379 c -0.09,37.148 -30.12,67.226 -67.31,67.316 z M 131.137,154.863 c -0.414,0 -0.707,-0.019 -0.957,-0.019 -9.676,-0.391 -24.246,12.07 -24.977,21.394 l -56.0233,298.61 c -2.2266,11.925 -12.6133,20.254 -24.332,20.254 -1.5,0 -3.0782,-0.106 -4.6993,-0.457 C 8.32422,492.418 0,482.027 0,470.309 0,468.813 0.125,467.27 0.4375,465.688 H 0.445313 L 56.4023,167.285 c 7.4493,-35.625 38.3555,-61.269 74.6717,-62.012 h 59.821 l -9.301,49.59 z m 280.968,339.801 c -1.542,0.313 -3.101,0.438 -4.582,0.438 -11.738,0 -22.125,-8.329 -24.371,-20.254 L 327.211,176.445 c -0.789,-9.531 -15.379,-21.992 -25.039,-21.601 -0.246,0 -0.524,0.019 -0.809,0.019 h -22.308 c -9.703,-0.41 -24.27,12.032 -25.039,21.375 l -36.047,192.301 c -2.25,11.945 -12.656,20.254 -24.352,20.254 -1.543,0 -3.097,-0.145 -4.625,-0.438 -11.902,-2.207 -20.226,-12.597 -20.203,-24.308 0,-0.156 0,-0.313 0.004,-0.457 h -0.379 L 205.23,167.285 c 7.43,-35.605 38.36,-61.269 74.672,-62.012 l 0.082,3.536 v -3.536 h 21.25 c 36.403,0.743 67.286,26.407 74.719,61.954 l 55.961,298.511 c 0.293,1.551 0.441,3.075 0.441,4.571 0,11.718 -8.328,22.129 -20.25,24.355 z M 1320.51,388.785 c -13.74,-0.031 -24.82,-11.094 -24.84,-24.816 V 130.09 c 0,-13.711 11.1,-24.809 24.84,-24.809 13.67,0 24.73,11.114 24.73,24.809 v 233.879 c 0,13.691 -11.06,24.816 -24.73,24.816 z m -235.08,-49.601 h 127.58 c 13.69,0 24.76,11.113 24.76,24.804 0,13.672 -11.07,24.797 -24.76,24.797 h -127.58 c -37.19,-0.09 -67.24,-30.137 -67.32,-67.336 v -31.898 c 0.08,-37.168 30.13,-67.246 67.3,-67.324 h 85.08 c 9.51,0 17.71,-8.184 17.71,-17.715 V 172.59 c 0.04,-9.516 -8.2,-17.738 -17.73,-17.738 h -127.56 c -13.69,-0.016 -24.8,-11.075 -24.8,-24.786 0,-13.687 11.11,-24.804 24.8,-24.804 l 127.58,0.019 c 37.17,0.078 67.22,30.141 67.28,67.309 v 31.922 c -0.06,37.187 -30.11,67.246 -67.28,67.304 h -85.06 c -9.53,0 -17.73,8.223 -17.73,17.735 v 31.898 c 0,9.551 8.2,17.715 17.73,17.735 z m -192.492,49.601 -0.016,-3.547 v 3.547 h -77.309 v -49.601 h 77.309 c 9.527,0.019 17.687,-8.133 17.687,-17.754 V 172.59 c 0.02,-9.555 -8.16,-17.738 -17.687,-17.719 h -85.067 c -9.531,-0.019 -17.773,8.223 -17.75,17.719 v 233.898 c 0,2.707 -0.417,5.285 -1.265,7.825 l -21.277,63.816 c -3.469,10.402 -13.129,16.984 -23.536,16.984 -2.582,0 -5.265,-0.402 -7.91,-1.32 -10.32,-3.445 -16.898,-13.105 -16.898,-23.496 0,-2.598 0.414,-5.242 1.289,-7.879 l 20,-59.961 V 172.59 c 0.082,-37.199 30.16,-67.207 67.328,-67.309 h 85.086 c 37.183,0.078 67.219,30.18 67.281,67.309 v 148.859 c -0.062,37.199 -30.098,67.266 -67.265,67.336 z m -277.665,-0.019 h -85.058 c -37.192,-0.059 -67.246,-30.129 -67.328,-67.305 V 172.598 c 0.082,-37.188 30.136,-67.246 67.304,-67.325 h 127.602 c 13.691,0 24.805,11.094 24.805,24.805 0,13.692 -11.114,24.805 -24.805,24.805 H 530.215 c -9.535,0 -17.715,8.203 -17.715,17.734 v 148.824 c 0,9.571 8.18,17.735 17.715,17.735 h 85.058 c 9.512,0 17.711,-8.184 17.711,-17.735 v -31.898 c 0,-9.516 -8.199,-17.719 -17.73,-17.719 h -77.246 v -49.59 h 77.265 c 37.168,0.079 67.243,30.137 67.325,67.309 v 31.898 c -0.082,37.196 -30.157,67.266 -67.325,67.325" style="fill:#39383a;fill-opacity:1;fill-rule:nonzero;stroke:none" id="path14"></path><path d="m 1329.65,493.609 -30.83,0.028 c -8.64,-0.039 -15.6,-7 -15.61,-15.606 v -30.847 c 0.01,-8.625 6.98,-15.579 15.59,-15.618 h 46.45 v 46.438 c -0.04,8.641 -7,15.594 -15.6,15.605" style="fill:#39383a;fill-opacity:1;fill-rule:nonzero;stroke:none" id="path16"></path></g></g></svg>