<?xml version="1.0" encoding="UTF-8"?> <svg xmlns="http://www.w3.org/2000/svg" id="Layer_1" data-name="Layer 1" viewBox="0 0 226.67 114.58"><defs><style>.cls-1{fill-rule:evenodd;}</style></defs><path class="cls-1" d="M346.87,191.75q-5.75,23.58-11.51,47.18H319.91q-9.15-34.68-18.3-69.4h15.26l9.76,47.34h.43c.65,0,.95-.25,1.12-.93q5.81-23,11.66-46c.08-.32.17-.48.54-.47H354l.27,0c.56,2.29,1.14,4.59,1.7,6.88q3.23,13,6.44,26.07c1.15,4.67,2.32,9.35,3.44,14,.15.64.4.95,1.06.86a3.5,3.5,0,0,1,.48,0q5.07-23.91,10.15-47.85h15c-.33,1.26-.66,2.47-1,3.68q-7.68,28.67-15.35,57.33l-2.14,8c-.08.31-.17.47-.54.47H359l-.24,0q-5.85-23.56-11.71-47.17Z" transform="translate(-301.61 -168.7)"></path><path class="cls-1" d="M527.81,186.79l-13,6.62a20.23,20.23,0,0,0-24.89-8.65,20.58,20.58,0,0,0,2.42,39.12,20.36,20.36,0,0,0,23-10.14q6.45,3.34,12.92,6.67a34.55,34.55,0,0,1-34.89,18.5,35.23,35.23,0,0,1-5.05-69A34.64,34.64,0,0,1,527.81,186.79Z" transform="translate(-301.61 -168.7)"></path><path class="cls-1" d="M419.28,182v15.61h31.47V211.2H419.28v27.71H404.52V169.17h.66q24.54,0,49.09,0c.54,0,.71.12.71.7,0,3.84,0,7.69,0,11.53V182Z" transform="translate(-301.61 -168.7)"></path><path class="cls-1" d="M302,282.42c.54-1.1,1.11-2.2,1.61-3.32q4.53-9.94,9-19.9a1.09,1.09,0,0,1,1.2-.79c1.33.06,2.66,0,4,0a.78.78,0,0,1,.86.53q5.21,11.7,10.42,23.37c0,.09.07.19.14.41-1.68,0-3.29,0-4.9,0-.18,0-.41-.3-.51-.51-.66-1.43-1.3-2.86-1.91-4.31a.76.76,0,0,0-.84-.54q-5.49,0-11,0a.85.85,0,0,0-.92.58c-.65,1.43-1.34,2.84-2,4.27a.8.8,0,0,1-.86.55c-1.44,0-2.88,0-4.31,0Zm13.79-19.36-4,9.23h7.88C318.42,269.22,317.17,266.23,315.83,263.06Z" transform="translate(-301.61 -168.7)"></path><path class="cls-1" d="M521.94,266c-.86,1.74-1.71,3.49-2.57,5.23-.77,1.58-1.56,3.16-2.3,4.75a1,1,0,0,1-1.06.64c-.92-.05-1.84,0-2.76,0a.92.92,0,0,1-1-.61c-1.56-3.22-3.16-6.42-4.74-9.62a.58.58,0,0,0-.32-.32v16.64h-5V258.44c2.21,0,4.4,0,6.59,0,.24,0,.53.4.68.68q2.46,4.62,4.88,9.28c.07.14.15.28.3.55.16-.29.3-.5.41-.72,1.57-3.05,3.16-6.11,4.72-9.18a1,1,0,0,1,1-.66c2.09,0,4.17,0,6.38,0v.93c0,7.47,0,14.94,0,22.4,0,.74-.18,1-.94,1-1.33-.06-2.66,0-4.12,0V266Z" transform="translate(-301.61 -168.7)"></path><path class="cls-1" d="M351.41,265.88c-1.28,2.6-2.55,5.19-3.82,7.79-.39.8-.8,1.59-1.16,2.41a.78.78,0,0,1-.87.54c-1,0-2,0-3,0a.8.8,0,0,1-.86-.55c-1.52-3.12-3.07-6.22-4.61-9.33a1.14,1.14,0,0,0-.44-.54v16.49h-5.07V258.52c.27,0,.56,0,.84,0,1.69,0,3.37,0,5,0a1.43,1.43,0,0,1,1.54,1c1.55,3,3.16,6.05,4.74,9.08.07.14.16.27.31.54.66-1.28,1.29-2.46,1.9-3.66,1.07-2.07,2.14-4.14,3.18-6.22a1.07,1.07,0,0,1,1.12-.7c1.84.05,3.69,0,5.54,0,.24,0,.47,0,.75,0V282.7H351.6V265.94Z" transform="translate(-301.61 -168.7)"></path><path class="cls-1" d="M451.35,282.69V258.55a.65.65,0,0,1,.24-.1c3.77,0,7.55-.11,11.32.05a9.71,9.71,0,0,1,9.44,7.75,16.32,16.32,0,0,1-.38,9.68,9.49,9.49,0,0,1-9.07,6.72C459.09,282.84,455.26,282.69,451.35,282.69Zm5.42-4.52c1.73,0,3.39.09,5,0a5.41,5.41,0,0,0,5.32-4.51,12.1,12.1,0,0,0-.22-6.67,5,5,0,0,0-4.11-3.73c-2-.29-4-.24-6-.34Z" transform="translate(-301.61 -168.7)"></path><path class="cls-1" d="M441.09,273.74l6.79,9c-2.24,0-4.3,0-6.35,0-.21,0-.47-.31-.63-.53-1.72-2.41-3.44-4.81-5.1-7.25a1.63,1.63,0,0,0-1.72-.87,12.87,12.87,0,0,1-1.53,0v8.62h-5.31V258.53c.07,0,.14-.09.21-.09,4,0,8-.08,12,.06,4.32.15,7.16,3.26,7.16,7.58C446.57,270,444.87,272.41,441.09,273.74Zm-8.51-4c1.84,0,3.6.13,5.34,0,2.72-.26,3.75-1.77,3.31-4.47a2.73,2.73,0,0,0-2.19-2.41,9.62,9.62,0,0,0-1.92-.25c-1.51,0-3,0-4.54,0Z" transform="translate(-301.61 -168.7)"></path><path class="cls-1" d="M422.86,258.42v4.47H410.42v5.38h11c0,1.56,0,3,0,4.52,0,.12-.49.33-.75.33-3.09,0-6.18,0-9.28,0h-.93v5.08H424v4.53H405.19V258.42Z" transform="translate(-301.61 -168.7)"></path><path class="cls-1" d="M379.35,265.75c-1.67-.25-3.27-.47-4.87-.72a.66.66,0,0,1-.41-.3c-1.19-2.21-2.57-3-5.08-2.62a6.25,6.25,0,0,0-1.94.55,2.25,2.25,0,0,0-1.3,2.25,1.94,1.94,0,0,0,1.54,1.88q2.82.88,5.69,1.62a12.3,12.3,0,0,1,4.82,2,6.89,6.89,0,0,1-.57,10.89,11.86,11.86,0,0,1-7.18,1.93,11.26,11.26,0,0,1-7.78-2.54,7.56,7.56,0,0,1-2.54-6.14c1.66.28,3.23.53,4.8.82a.76.76,0,0,1,.47.42,4.05,4.05,0,0,0,3.67,3.1,8.16,8.16,0,0,0,4.48-.39,2.56,2.56,0,0,0,1.77-2.22,2.26,2.26,0,0,0-1.54-2.44c-1.84-.68-3.77-1.15-5.65-1.74-1.18-.38-2.37-.75-3.51-1.24-5.05-2.18-4.62-8.78-.74-11.28a11.36,11.36,0,0,1,7.22-1.71,14,14,0,0,1,2.72.43C376.75,259.24,379.32,261.47,379.35,265.75Z" transform="translate(-301.61 -168.7)"></path><path class="cls-1" d="M472.42,282.73l.54-1.2q5.07-11.17,10.11-22.35a1.11,1.11,0,0,1,1.22-.77c1.33,0,2.66,0,4,0a1,1,0,0,1,.79.46q5.26,11.7,10.48,23.43c0,.09.07.2.13.39-1.66,0-3.25,0-4.84,0-.2,0-.48-.3-.58-.52-.65-1.4-1.28-2.81-1.87-4.24a.81.81,0,0,0-.89-.6c-3.66,0-7.33,0-11,0a.82.82,0,0,0-.9.59c-.63,1.41-1.34,2.79-2,4.2a.87.87,0,0,1-1,.6C475.29,282.71,473.92,282.73,472.42,282.73Zm13.82-19.67c-1.38,3.17-2.68,6.19-4,9.22h7.87C488.83,269.22,487.57,266.23,486.24,263.06Z" transform="translate(-301.61 -168.7)"></path><path class="cls-1" d="M402.06,258.48V263h-7.57v19.72h-5.38V262.93h-7.67v-4.45Z" transform="translate(-301.61 -168.7)"></path></svg> 